<svg width="36" height="24" viewBox="0 0 36 24" fill="none" xmlns="http://www.w3.org/2000/svg">
<path d="M2.31809 10.7167L23.1825 10.7167L32.0556 10.7167C32.5858 10.7167 33.0156 10.2869 33.0156 9.75674L33.0156 8.44803C33.0156 7.91784 32.5858 7.48803 32.0556 7.48803L11.3569 7.48803C10.8267 7.48803 10.3969 7.05823 10.3969 6.52803L10.3969 2.63796C10.3969 1.78269 9.36281 1.35437 8.75805 1.95913L1.63927 9.07791C1.0345 9.68268 1.46283 10.7167 2.31809 10.7167Z" fill="#1A1A1A" fill-opacity="0.8"/>
<path d="M27.8065 14.7158L9.26035 14.7158L0.853334 14.7158C0.382051 14.7158 1.16175e-06 15.0978 1.09994e-06 15.5691L9.47397e-07 16.7324C8.85596e-07 17.2037 0.38205 17.5857 0.853333 17.5857L19.772 17.5857C20.2433 17.5857 20.6254 17.9678 20.6254 18.4391L20.6254 21.8969C20.6254 22.6571 21.5445 23.0379 22.0821 22.5003L28.4099 16.1725C28.9475 15.6349 28.5668 14.7158 27.8065 14.7158Z" fill="url(#paint0_linear_13367_41)"/>
<defs>
<linearGradient id="paint0_linear_13367_41" x1="-6.46407" y1="18.8139" x2="31.3789" y2="-15.2365" gradientUnits="userSpaceOnUse">
<stop offset="0.115385" stop-color="#F6BA83"/>
<stop offset="0.456731" stop-color="#915D47"/>
</linearGradient>
</defs>
</svg>
