<svg width="13" height="19" viewBox="0 0 13 19" fill="none" xmlns="http://www.w3.org/2000/svg">
<path d="M1.24414 3.76208H8.75551C9.50256 3.76208 10.219 4.05884 10.7473 4.58709C11.2755 5.11533 11.5723 5.83179 11.5723 6.57884C11.5723 7.32589 11.2755 8.04235 10.7473 8.57059C10.219 9.09884 9.50256 9.3956 8.75551 9.3956M8.75551 9.3956C9.50256 9.3956 10.219 9.69237 10.7473 10.2206C11.2755 10.7489 11.5723 11.4653 11.5723 12.2124C11.5723 12.9594 11.2755 13.6759 10.7473 14.2041C10.219 14.7324 9.50256 15.0291 8.75551 15.0291H1.24414M8.75551 9.3956H3.12198M3.12198 3.76208V15.0291M4.0609 0.945312V3.76208M7.81659 0.945312V3.76208M4.0609 15.0291V17.8459M7.81659 15.0291V17.8459" stroke="url(#paint0_linear_8872_7877)" stroke-width="1.11026" stroke-linecap="round" stroke-linejoin="round"/>
<defs>
<linearGradient id="paint0_linear_8872_7877" x1="6.99213" y1="-2.7125" x2="21.612" y2="29.3782" gradientUnits="userSpaceOnUse">
<stop offset="0.115385" stop-color="#F6BA83"/>
<stop offset="0.456731" stop-color="#915D47"/>
</linearGradient>
</defs>
</svg>
