<svg width="13" height="18" viewBox="0 0 13 18" fill="none" xmlns="http://www.w3.org/2000/svg">
<path d="M10.5674 6.94808C10.4921 6.88534 10.3967 6.85147 10.3001 6.85147C10.1759 6.85147 10.0592 6.90542 9.97888 7.00078C9.83082 7.1777 9.85466 7.4412 10.0316 7.58926C11.3591 8.70098 12.0643 10.3322 11.9652 12.065C11.8083 14.8117 9.53093 17.0489 6.7805 17.1593C6.70647 17.1618 6.63244 17.1643 6.55841 17.1643C5.15182 17.1643 3.81801 16.6285 2.80417 15.6536C1.73009 14.6222 1.1391 13.2344 1.1391 11.7463C1.1391 10.1377 1.84679 8.62319 3.08272 7.58926C3.74398 7.03592 4.26722 6.42485 4.63863 5.77112C5.10414 4.95301 5.65122 3.6694 5.80806 1.98175C5.81308 1.92277 5.89213 1.90395 5.92099 1.95665C6.27734 2.60034 6.65753 3.4335 6.92103 4.39967C7.71655 7.32075 7.10548 10.0373 5.10414 12.4766C5.04768 12.5456 5.00752 12.6284 5 12.7162C4.9887 12.858 5.04517 12.9897 5.15057 13.0763C5.2246 13.1378 5.31996 13.1717 5.41658 13.1717C5.54205 13.1717 5.66 13.1165 5.73905 13.0199C8.47442 9.696 8.32636 6.36964 7.72157 4.16377C7.0716 1.79102 5.793 0.218809 5.73905 0.153562C5.48182 -0.158873 4.97616 0.0393787 5 0.443411C5.13175 2.6957 4.48178 4.35951 3.91338 5.35956C3.5909 5.92545 3.13166 6.45998 2.54694 6.94934C1.12154 8.14136 0.304688 9.89049 0.304688 11.7475C0.304688 13.4653 0.987277 15.0664 2.22572 16.2571C3.39641 17.3814 4.93349 18 6.55464 18C6.64122 18 6.7278 17.9987 6.81438 17.995C9.99017 17.867 12.6189 15.2847 12.8008 12.1139C12.915 10.1151 12.1019 8.23296 10.5686 6.94934L10.5674 6.94808Z" fill="url(#paint0_linear_8806_426)"/>
<defs>
<linearGradient id="paint0_linear_8806_426" x1="7.26515" y1="-3.89576" x2="21.5147" y2="31.6666" gradientUnits="userSpaceOnUse">
<stop offset="0.15" stop-color="#F6BA83"/>
<stop offset="0.49" stop-color="#915D47"/>
</linearGradient>
</defs>
</svg>
