<svg width="28" height="28" viewBox="0 0 28 28" fill="none" xmlns="http://www.w3.org/2000/svg">
<path d="M14 0.644531C11.4987 0.644531 9.46867 2.6512 9.36833 5.1292C7.27659 6.0225 5.49408 7.51178 4.24306 9.41134C2.99204 11.3109 2.32786 13.5367 2.33333 15.8112C2.33333 16.0095 2.324 16.2312 2.33333 16.468C0.950833 17.28 0 18.7687 0 20.4779C0 23.041 2.1035 25.1445 4.66667 25.1445C5.3375 25.1445 5.985 25.0022 6.5625 24.7432C8.58433 26.4419 11.221 27.4779 14 27.4779C16.779 27.4779 19.4157 26.4419 21.4375 24.7432C22.0344 25.0082 22.6803 25.1449 23.3333 25.1445C25.8965 25.1445 28 23.041 28 20.4779C28 18.7512 27.0375 17.238 25.6317 16.4295C25.6492 16.2429 25.6667 16.0562 25.6667 15.8112C25.6721 13.5367 25.008 11.3109 23.7569 9.41134C22.5059 7.51178 20.7234 6.0225 18.6317 5.1292C18.5302 2.6512 16.5002 0.644531 14 0.644531ZM14 2.97786C15.302 2.97786 16.3333 4.0092 16.3333 5.3112C16.3333 6.6132 15.302 7.64453 14 7.64453C12.698 7.64453 11.6667 6.6132 11.6667 5.3112C11.6667 4.0092 12.698 2.97786 14 2.97786ZM9.88167 7.46253C10.6633 8.94886 12.215 9.97787 14 9.97787C15.785 9.97787 17.3367 8.94886 18.1183 7.46253C19.6843 8.22341 21.0042 9.41021 21.9265 10.8868C22.8489 12.3635 23.3365 14.0702 23.3333 15.8112C20.7702 15.8112 18.6667 17.9147 18.6667 20.4779C18.6667 21.522 19.0283 22.4682 19.6152 23.2487C17.9959 24.4679 16.0269 25.1327 14 25.1445C11.9731 25.1327 10.0041 24.4679 8.38483 23.2487C8.99541 22.4536 9.32858 21.4803 9.33333 20.4779C9.33333 17.9147 7.22983 15.8112 4.66667 15.8112C4.66667 12.1712 6.755 8.9792 9.88167 7.46253ZM4.66667 18.1445C5.96867 18.1445 7 19.1759 7 20.4779C7 21.7799 5.96867 22.8112 4.66667 22.8112C3.36467 22.8112 2.33333 21.7799 2.33333 20.4779C2.33333 19.1759 3.36467 18.1445 4.66667 18.1445ZM23.3333 18.1445C24.6353 18.1445 25.6667 19.1759 25.6667 20.4779C25.6667 21.7799 24.6353 22.8112 23.3333 22.8112C22.0313 22.8112 21 21.7799 21 20.4779C21 19.1759 22.0313 18.1445 23.3333 18.1445Z" fill="url(#paint0_linear_8837_4054)"/>
<defs>
<linearGradient id="paint0_linear_8837_4054" x1="1.51791e-07" y1="-6.02214" x2="49.5814" y2="52.723" gradientUnits="userSpaceOnUse">
<stop offset="0.15" stop-color="#F6BA83"/>
<stop offset="0.49" stop-color="#915D47"/>
</linearGradient>
</defs>
</svg>
