<svg width="22" height="22" viewBox="0 0 22 22" fill="none" xmlns="http://www.w3.org/2000/svg">
<path d="M21.1549 13.5037L20.178 13.2507M2.59419 8.69617L1.61731 8.44314M8.76857 20.4166L9.03032 19.4723M13.7419 2.47457L14.0037 1.53025M16.4421 19.4387L16.1607 18.9691M6.6105 2.97755L6.32946 2.50699M2.62896 15.8608L3.11549 15.5901M19.6577 6.35701L20.1445 6.08533M14.8211 6.1356C13.6864 5.38294 12.3206 5.02553 10.948 5.122C9.57545 5.21848 8.27755 5.76311 7.26734 6.66652C6.25712 7.56994 5.59459 8.77847 5.38847 10.0938C5.18235 11.4091 5.44489 12.7531 6.13299 13.9052C6.8211 15.0573 7.8939 15.9491 9.17535 16.4342C10.4568 16.9193 11.8708 16.969 13.1852 16.575C14.4997 16.181 15.6366 15.3667 16.4093 14.2659C17.182 13.1651 17.5447 11.843 17.4378 10.5167" stroke="url(#paint0_linear_8010_79)" stroke-width="1.46644" stroke-linecap="round"/>
<defs>
<linearGradient id="paint0_linear_8010_79" x1="25.0875" y1="15.6668" x2="-19.5888" y2="16.1166" gradientUnits="userSpaceOnUse">
<stop offset="0.15" stop-color="#F6BA83"/>
<stop offset="0.49" stop-color="#915D47"/>
</linearGradient>
</defs>
</svg>
