<svg width="19" height="17" viewBox="0 0 19 17" fill="none" xmlns="http://www.w3.org/2000/svg">
<path fill-rule="evenodd" clip-rule="evenodd" d="M16.7143 0.958582C16.9435 0.862093 17.1944 0.828814 17.4409 0.86221C17.6874 0.895605 17.9204 0.994454 18.1157 1.14847C18.311 1.30248 18.4615 1.50603 18.5515 1.73793C18.6414 1.96982 18.6676 2.22159 18.6272 2.46702L16.5232 15.2294C16.3191 16.4605 14.9683 17.1664 13.8393 16.5532C12.8949 16.0402 11.4922 15.2498 10.2306 14.4251C9.59974 14.0123 7.66734 12.6903 7.90483 11.7496C8.10892 10.9453 11.3559 7.92283 13.2113 6.12587C13.9395 5.41989 13.6074 5.01263 12.7474 5.66202C10.6119 7.27436 7.18308 9.72628 6.04943 10.4165C5.04937 11.0251 4.528 11.129 3.90459 11.0251C2.76723 10.8358 1.71243 10.5427 0.851525 10.1855C-0.311811 9.70308 -0.255222 8.10373 0.850597 7.63802L16.7143 0.958582Z" fill="url(#paint0_linear_8813_752)"/>
<defs>
<linearGradient id="paint0_linear_8813_752" x1="10.377" y1="-2.59783" x2="18.5984" y2="31.9693" gradientUnits="userSpaceOnUse">
<stop offset="0.15" stop-color="#F6BA83"/>
<stop offset="0.49" stop-color="#915D47"/>
</linearGradient>
</defs>
</svg>
