<svg width="36" height="35" viewBox="0 0 36 35" fill="none" xmlns="http://www.w3.org/2000/svg">
<path d="M29.8074 27.0357L28.5734 16.0161C28.5316 15.6437 28.2187 15.3639 27.8441 15.3639C27.8176 15.3639 27.789 15.3639 27.7625 15.3683C27.5686 15.3903 27.3924 15.4873 27.2712 15.6393C27.15 15.7914 27.0927 15.9831 27.1147 16.1792L28.3509 27.2053C28.3553 27.2494 28.3443 27.2869 28.3134 27.3221C28.2782 27.3596 28.2275 27.3838 28.1746 27.3838H9.96515C9.91006 27.3838 9.85938 27.3618 9.82633 27.3221C9.79548 27.2869 9.78446 27.2472 9.78887 27.1987L11.382 12.9665C11.393 12.885 11.4679 12.8233 11.5583 12.8233H26.5749C26.9803 12.8233 27.3086 12.495 27.3086 12.0896C27.3086 11.6841 26.9803 11.3558 26.5749 11.3558H24.7746C24.5301 6.83649 22.0622 3.3418 19.0655 3.3418C16.0687 3.3418 13.6009 6.83649 13.3563 11.3558H11.5561C10.7253 11.3558 10.0224 11.9728 9.92108 12.7947L8.32797 27.0269C8.27289 27.4852 8.41611 27.9457 8.7246 28.2938C9.03749 28.6464 9.4892 28.8491 9.96294 28.8491H28.1702C28.6439 28.8491 29.0956 28.6464 29.4085 28.2938C29.7148 27.9457 29.8602 27.4874 29.8052 27.0357H29.8074ZM19.0699 4.81151C21.2293 4.81151 23.089 7.71788 23.3093 11.358H14.8304C15.0507 7.71788 16.9105 4.81151 19.0699 4.81151Z" fill="url(#paint0_linear_8806_26)"/>
<defs>
<linearGradient id="paint0_linear_8806_26" x1="20.2821" y1="-2.17878" x2="37.6995" y2="50.5538" gradientUnits="userSpaceOnUse">
<stop offset="0.15" stop-color="#F6BA83"/>
<stop offset="0.49" stop-color="#915D47"/>
</linearGradient>
</defs>
</svg>
