<svg width="21" height="21" viewBox="0 0 21 21" fill="none" xmlns="http://www.w3.org/2000/svg">
<path d="M15.954 15.274L13.1559 11.9759H11.3887L10.2106 10.7977L12.5669 7.26332H16.6903M6.08714 4.31798L7.33666 5.5675C8.00808 6.23892 8.21476 7.24587 7.86211 8.12748V8.12748C7.50164 9.02866 6.62883 9.61959 5.65823 9.61959H3.1418M17.8685 10.2087C17.8685 14.438 14.4399 17.8665 10.2106 17.8665C5.98128 17.8665 2.55273 14.438 2.55273 10.2087C2.55273 5.97933 5.98128 2.55078 10.2106 2.55078C14.4399 2.55078 17.8685 5.97933 17.8685 10.2087Z" stroke="url(#paint0_linear_8872_7882)" stroke-width="1.00431" stroke-linecap="round" stroke-linejoin="round"/>
<defs>
<linearGradient id="paint0_linear_8872_7882" x1="11.0765" y1="-0.764023" x2="20.1502" y2="31.8271" gradientUnits="userSpaceOnUse">
<stop offset="0.115385" stop-color="#F6BA83"/>
<stop offset="0.456731" stop-color="#915D47"/>
</linearGradient>
</defs>
</svg>
