<svg width="37" height="34" viewBox="0 0 37 34" fill="none" xmlns="http://www.w3.org/2000/svg">
<path d="M18.5007 4.15846C20.2921 2.2153 22.8593 1 25.7122 1C31.0284 1 35.3567 5.22212 35.5299 10.4949C35.532 10.5751 35.5343 10.6552 35.5343 10.7354V10.757C35.5234 11.1686 35.4693 12.0525 35.2158 13.3024C34.3254 17.7086 30.9829 23.1612 18.4984 32.147C6.04224 23.1808 2.68662 17.7454 1.78979 13.3306C1.53199 12.0655 1.47566 11.1708 1.46484 10.757V10.7354C1.46484 10.6552 1.46701 10.5751 1.46918 10.4949C1.64248 5.22212 5.97073 1 11.2868 1" stroke="url(#paint0_linear_8793_4781)" stroke-width="1.81556" stroke-miterlimit="10" stroke-linecap="round"/>
<defs>
<linearGradient id="paint0_linear_8793_4781" x1="20.4258" y1="-5.74118" x2="37.4973" y2="61.3303" gradientUnits="userSpaceOnUse">
<stop offset="0.115385" stop-color="#F6BA83"/>
<stop offset="0.456731" stop-color="#915D47"/>
</linearGradient>
</defs>
</svg>
