<svg width="21" height="21" viewBox="0 0 21 21" fill="none" xmlns="http://www.w3.org/2000/svg">
<path d="M6.0601 0.0371094H14.8368C18.1803 0.0371094 20.8969 2.75371 20.8969 6.09721V14.8739C20.8969 16.4811 20.2584 18.0226 19.1219 19.159C17.9855 20.2955 16.444 20.934 14.8368 20.934H6.0601C2.7166 20.934 0 18.2174 0 14.8739V6.09721C0 4.48997 0.638473 2.94856 1.77496 1.81207C2.91145 0.675583 4.45286 0.0371094 6.0601 0.0371094ZM5.85113 2.1268C4.85354 2.1268 3.8968 2.52309 3.19139 3.2285C2.48598 3.93391 2.08969 4.89065 2.08969 5.88824V15.0829C2.08969 17.1621 3.77189 18.8443 5.85113 18.8443H15.0458C16.0434 18.8443 17.0001 18.448 17.7055 17.7426C18.4109 17.0372 18.8072 16.0805 18.8072 15.0829V5.88824C18.8072 3.809 17.125 2.1268 15.0458 2.1268H5.85113ZM15.9339 3.69407C16.2803 3.69407 16.6125 3.83167 16.8574 4.0766C17.1023 4.32154 17.2399 4.65374 17.2399 5.00012C17.2399 5.34651 17.1023 5.67871 16.8574 5.92365C16.6125 6.16858 16.2803 6.30618 15.9339 6.30618C15.5875 6.30618 15.2553 6.16858 15.0104 5.92365C14.7654 5.67871 14.6278 5.34651 14.6278 5.00012C14.6278 4.65374 14.7654 4.32154 15.0104 4.0766C15.2553 3.83167 15.5875 3.69407 15.9339 3.69407ZM10.4485 5.26133C11.834 5.26133 13.1628 5.81174 14.1425 6.79148C15.1223 7.77121 15.6727 9.10001 15.6727 10.4856C15.6727 11.8711 15.1223 13.1999 14.1425 14.1796C13.1628 15.1594 11.834 15.7098 10.4485 15.7098C9.0629 15.7098 7.7341 15.1594 6.75437 14.1796C5.77463 13.1999 5.22423 11.8711 5.22423 10.4856C5.22423 9.10001 5.77463 7.77121 6.75437 6.79148C7.7341 5.81174 9.0629 5.26133 10.4485 5.26133ZM10.4485 7.35103C9.61712 7.35103 8.81984 7.68127 8.232 8.26911C7.64416 8.85695 7.31392 9.65423 7.31392 10.4856C7.31392 11.3169 7.64416 12.1142 8.232 12.702C8.81984 13.2899 9.61712 13.6201 10.4485 13.6201C11.2798 13.6201 12.0771 13.2899 12.6649 12.702C13.2527 12.1142 13.583 11.3169 13.583 10.4856C13.583 9.65423 13.2527 8.85695 12.6649 8.26911C12.0771 7.68127 11.2798 7.35103 10.4485 7.35103Z" fill="url(#paint0_linear_8813_750)"/>
<defs>
<linearGradient id="paint0_linear_8813_750" x1="11.6299" y1="-4.48563" x2="24.0101" y2="39.9819" gradientUnits="userSpaceOnUse">
<stop offset="0.15" stop-color="#F6BA83"/>
<stop offset="0.49" stop-color="#915D47"/>
</linearGradient>
</defs>
</svg>
