<svg width="128" height="23" viewBox="0 0 128 23" fill="none" xmlns="http://www.w3.org/2000/svg">
<g clip-path="url(#clip0_8813_594)">
<path d="M95.436 0.881649C88.7866 2.62259 85.4982 9.77979 88.5206 15.9214C89.7538 18.412 91.8333 20.1771 94.6381 21.1443C95.8954 21.5553 96.5967 21.6279 98.6036 21.5553C100.828 21.4828 101.191 21.4102 102.859 20.5881C105.084 19.4759 106.655 17.88 107.719 15.6071C108.396 14.2047 108.493 13.6727 108.566 11.6416C108.687 8.78842 108.275 7.2651 106.897 5.18564C105.761 3.49306 103.899 2.04228 101.892 1.2927C100.199 0.639851 97.0803 0.470592 95.436 0.881649ZM100.707 5.04056C104.987 6.82986 106.099 12.5363 102.811 15.8005C100.224 18.412 95.7262 18.3878 93.2115 15.7522C91.5915 14.0596 90.8902 10.9646 91.6882 8.90932C93.0664 5.33072 97.177 3.5656 100.707 5.04056Z" fill="#1A1A1A"/>
<path d="M2.4707 11.3326V21.3672H4.40508H6.33946V17.0148V12.6625H11.2963H16.2532V17.0148V21.3672H18.1875H20.1219V11.3326V1.29801H18.1875H16.2532V4.92497V8.55193H11.2963H6.33946V4.92497V1.29801H4.40508H2.4707V11.3326Z" fill="#1A1A1A"/>
<path d="M25.918 7.68021C25.918 14.378 26.063 15.8046 26.8852 17.5697C27.9974 19.9152 29.956 21.1967 33.1235 21.6561C37.9111 22.3573 41.7073 20.8098 43.1581 17.5697C44.077 15.4903 44.2946 13.6284 44.2946 7.14826V1.29676H42.3602H40.4258V6.54376C40.4258 12.0567 40.184 14.644 39.5795 15.8046C38.4189 18.0533 33.6555 18.682 31.4793 16.8443C29.956 15.5628 29.9076 15.3694 29.8351 7.99455L29.7625 1.29676H27.8282H25.918V7.68021Z" fill="#1A1A1A"/>
<path d="M49.375 11.3533V21.4121L55.8552 21.2912C59.6514 21.2429 62.6739 21.0736 63.1816 20.9043C64.4873 20.4933 65.9865 19.3085 66.5184 18.2687C67.6549 16.02 67.3647 13.2877 65.8172 11.6435L64.8984 10.6763L65.648 9.58822C66.3492 8.62103 66.4217 8.33087 66.4217 6.78337C66.3975 4.02688 65.382 2.52773 62.8915 1.65726C62.1177 1.36711 60.546 1.29457 55.6376 1.29457H49.375V11.3533ZM61.6825 5.50184C62.0452 5.81618 62.1903 6.25142 62.1903 6.90427C62.1903 8.95955 61.489 9.27388 56.7256 9.27388H53.2438V7.07353V4.89735L57.2092 4.96989C60.7153 5.04243 61.2231 5.09079 61.6825 5.50184ZM61.7792 12.925C63.2783 13.6021 63.2783 16.552 61.7792 17.229C61.4407 17.3983 59.6272 17.495 57.2334 17.495H53.2438V15.077V12.659H57.2334C59.6272 12.659 61.4407 12.7558 61.7792 12.925Z" fill="#1A1A1A"/>
<path d="M72.832 11.3326V21.3672H79.4815H86.1309V19.3119V17.2566H81.4158H76.7008V9.27732V1.29801H74.7664H72.832V11.3326Z" fill="#1A1A1A"/>
<path d="M110.307 3.23239V5.14259L113.402 5.21512L116.472 5.28766L116.545 13.3153L116.593 21.3672H118.528H120.462L120.51 13.3153L120.583 5.28766L123.557 5.21512L126.507 5.14259V3.23239V1.29801H118.407H110.307V3.23239Z" fill="#1A1A1A"/>
</g>
<defs>
<clipPath id="clip0_8813_594">
<rect width="127.357" height="22.0426" fill="white" transform="translate(0.205078 0.181641)"/>
</clipPath>
</defs>
</svg>
