<svg width="19" height="20" viewBox="0 0 19 20" fill="none" xmlns="http://www.w3.org/2000/svg">
<path d="M9.54521 19.3799C8.22211 19.3799 6.98187 19.1279 5.82447 18.6239C4.66707 18.1198 3.659 17.4387 2.80024 16.5806C1.94149 15.7225 1.26009 14.7144 0.756056 13.5564C0.252019 12.3984 0 11.1578 0 9.83471C0 7.53504 0.73243 5.50724 2.19729 3.75129C3.66215 1.99535 5.52866 0.904427 7.79683 0.478516C7.51331 2.03788 7.59994 3.56197 8.05673 5.05077C8.51351 6.53957 9.30107 7.84282 10.4194 8.96052C11.5377 10.0782 12.8413 10.8658 14.3301 11.3232C15.8189 11.7806 17.3427 11.8672 18.9014 11.5831C18.4919 13.8513 17.405 15.7178 15.6409 17.1826C13.8768 18.6475 11.8449 19.3799 9.54521 19.3799Z" fill="url(#paint0_linear_8839_5429)"/>
<defs>
<linearGradient id="paint0_linear_8839_5429" x1="10.5193" y1="-3.61234" x2="21.7173" y2="36.6089" gradientUnits="userSpaceOnUse">
<stop offset="0.15" stop-color="#F6BA83"/>
<stop offset="0.49" stop-color="#915D47"/>
</linearGradient>
</defs>
</svg>
