<svg width="15" height="19" viewBox="0 0 15 19" fill="none" xmlns="http://www.w3.org/2000/svg">
<path d="M11.9093 18.3644L11.7033 18.3285C9.42622 17.6729 7.33418 16.4934 5.59467 14.8843C3.97561 13.4067 2.69789 11.5941 1.85039 9.5726C0.922185 7.38588 0.520097 5.01186 0.676467 2.64144C0.696267 2.35893 0.773254 2.08338 0.902758 1.83152C1.03226 1.57966 1.21158 1.35674 1.42984 1.17627C1.64363 0.992095 1.8922 0.852698 2.16083 0.766329C2.42947 0.679961 2.7127 0.648378 2.99377 0.673452L5.32231 1.07886C5.82654 1.16717 6.28257 1.43287 6.60806 1.82797C6.93355 2.22308 7.10703 2.72154 7.09719 3.23335C7.07083 3.88839 7.12076 4.54428 7.24596 5.18778C7.32005 5.59135 7.27736 6.00769 7.12291 6.38782C6.96845 6.76796 6.70866 7.09608 6.37409 7.33361L5.73266 7.7848C6.35639 9.29246 7.31036 10.641 8.52432 11.7311L9.16419 11.2889C9.50081 11.0543 9.89743 10.9207 10.3074 10.9038C10.7174 10.8869 11.1236 10.9874 11.4784 11.1935C12.0428 11.5267 12.643 11.7952 13.2676 11.9941C13.7612 12.1585 14.1779 12.4975 14.4394 12.9474C14.7008 13.3972 14.7891 13.9271 14.6876 14.4374L14.3134 16.5869C14.2161 17.1459 13.9013 17.6436 13.4379 17.971C12.9745 18.2984 12.4002 18.429 11.8408 18.334L11.9093 18.3644ZM5.08998 2.41329L2.94951 2.04063C2.8432 2.02928 2.7357 2.0396 2.63349 2.07097C2.53128 2.10234 2.4365 2.15411 2.35486 2.22315C2.27592 2.28739 2.21079 2.36693 2.1634 2.457C2.116 2.54707 2.08732 2.64579 2.07907 2.74723C1.92977 4.8957 2.28474 7.04933 3.11566 9.03624C3.8815 10.8736 5.04032 12.521 6.51073 13.8627C8.09833 15.3293 10.0051 16.4068 12.0805 17.0101C12.1895 17.0349 12.3025 17.0371 12.4124 17.0166C12.5223 16.996 12.6268 16.9532 12.7195 16.8907C12.8876 16.7693 13.002 16.5874 13.0386 16.3833L13.4112 14.2429C13.4481 14.0551 13.4148 13.8603 13.3176 13.6955C13.2205 13.5306 13.0663 13.4071 12.8841 13.3483C12.1615 13.1202 11.4661 12.8134 10.8104 12.4336C10.6813 12.358 10.5335 12.3205 10.384 12.3255C10.2345 12.3305 10.0894 12.3778 9.96575 12.4619L8.91423 13.2016C8.79153 13.2856 8.645 13.3278 8.49641 13.3218C8.34782 13.3159 8.20511 13.2622 8.08948 13.1687C6.36646 11.7561 5.05951 9.90198 4.30823 7.8044C4.2562 7.66429 4.25232 7.51083 4.29719 7.36827C4.34206 7.2257 4.43313 7.10214 4.55603 7.01708L5.60755 6.27741C5.72834 6.19143 5.82184 6.0725 5.8769 5.93484C5.93195 5.79717 5.94624 5.64657 5.91805 5.501C5.78148 4.75558 5.72781 3.99734 5.75804 3.24011C5.7693 3.04393 5.70712 2.85058 5.58362 2.69773C5.46013 2.54489 5.28415 2.44349 5.08998 2.41329Z" fill="url(#paint0_linear_8765_3632)"/>
<defs>
<linearGradient id="paint0_linear_8765_3632" x1="10.3407" y1="-1.54035" x2="13.8512" y2="33.3941" gradientUnits="userSpaceOnUse">
<stop offset="0.15" stop-color="#F6BA83"/>
<stop offset="0.49" stop-color="#915D47"/>
</linearGradient>
</defs>
</svg>
