<svg width="175" height="14" viewBox="0 0 175 14" fill="none" xmlns="http://www.w3.org/2000/svg">
<g clip-path="url(#clip0_8794_6091)">
<path d="M9.71765 5.00405C9.71765 5.63647 9.54936 5.91 8.98144 5.91H4.41921V1.82014H8.98096C9.52753 1.82014 9.71716 2.09464 9.71716 2.68438L9.71765 5.00405ZM14.1557 13.5761C13.5883 12.9975 13.3565 12.4922 13.1043 11.8389L11.4636 7.68988C12.8729 7.50074 13.5456 6.76842 13.5456 5.46721V2.60096C13.5456 1.13001 12.7047 0.103786 10.9374 0.103786H0.222656C0.348752 0.565005 0.474847 0.983545 0.474847 1.82062V11.8389C0.474847 12.6808 0.348752 13.1023 0.222656 13.5761H4.6714C4.54531 13.1023 4.41921 12.6813 4.41921 11.8389V7.62684H7.36306L9.67545 13.5761H14.1557ZM16.2508 13.5761C16.3769 13.1028 16.503 12.6818 16.503 11.8409V1.82935C16.503 0.98791 16.3769 0.56743 16.2508 0.103786H20.6991C20.573 0.566945 20.4469 0.98791 20.4469 1.82935V11.8409C20.4469 12.6813 20.573 13.1028 20.6991 13.5761H16.2508ZM33.9091 13.579H26.0451C24.2409 13.579 23.4019 12.5741 23.4019 10.9344V2.74888C23.4019 1.10916 24.2409 0.103786 26.0451 0.103786H33.9086L34.2452 2.13683C33.719 1.92587 33.1724 1.82014 32.3309 1.82014H28.0602C27.6188 1.82014 27.3453 1.98988 27.3453 2.53791V11.1454C27.3453 11.6934 27.6184 11.8632 28.0602 11.8632H32.3305C33.1719 11.8632 33.7185 11.7569 34.2447 11.546L33.9091 13.579ZM45.9075 13.5761C46.0341 13.1023 46.1602 12.6813 46.1602 11.8389V7.62684H40.8288V11.8389C40.8288 12.6808 40.9554 13.1023 41.082 13.5761H36.6322C36.7583 13.1023 36.8844 12.6813 36.8844 11.8389V1.82935C36.8844 0.98791 36.7583 0.56743 36.6322 0.103786H41.082C40.9559 0.56743 40.8288 0.98791 40.8288 1.82935V5.91H46.1597V1.82935C46.1597 0.98791 46.0336 0.56743 45.9071 0.103786H50.3563C50.2302 0.56743 50.1041 0.98791 50.1041 1.82935V11.8389C50.1041 12.6808 50.2302 13.1023 50.3563 13.5761H45.9075ZM61.4711 8.02792H56.9278L59.1781 2.92784L61.4711 8.02792ZM68.4549 13.5761C68.0761 13.2308 67.6973 12.4728 67.4029 11.8438L62.0604 0.103786H57.664L58.2319 0.989849L53.3515 11.8438C53.1411 12.3263 52.7201 12.998 52.3205 13.5761H54.9078C54.9078 12.9136 55.0553 12.2424 55.2231 11.8438L56.1281 9.74476H62.2485L63.1749 11.8438C63.4057 12.3675 63.5318 12.8928 63.5318 13.2308C63.5318 13.3603 63.5318 13.4461 63.4901 13.5761H68.4549ZM79.9077 5.00405C79.9077 5.63647 79.7399 5.91 79.1715 5.91H74.6098V1.82014H79.1715C79.7186 1.82014 79.9077 2.09464 79.9077 2.68438V5.00405ZM84.3463 13.5761C83.7779 12.9975 83.5471 12.4922 83.2939 11.8389L81.6532 7.68988C83.0626 7.50074 83.7357 6.76842 83.7357 5.46721V2.60096C83.7357 1.13001 82.8943 0.103786 81.1275 0.103786H70.4132C70.5393 0.565005 70.6654 0.983545 70.6654 1.82062V11.8389C70.6654 12.6808 70.5393 13.1023 70.4132 13.5761H74.862C74.7359 13.1023 74.6098 12.6813 74.6098 11.8389V7.62684H77.5527L79.8655 13.5761H84.3463ZM96.079 11.1444C96.079 11.6939 95.804 11.8627 95.3612 11.8627H90.6375V1.82062L95.3612 1.80026C95.804 1.80026 96.079 1.96903 96.079 2.51803V11.1444ZM100.023 10.9325V2.73045C100.023 1.09703 99.1839 0.104271 97.3797 0.104271H86.4414C86.5675 0.55967 86.6936 0.97336 86.6936 1.80026V11.8636C86.6936 12.7007 86.5675 13.1188 86.4414 13.58H97.3792C99.1834 13.5795 100.022 12.5751 100.022 10.933L100.023 10.9325ZM121.606 13.4718C121.732 12.9985 121.858 12.578 121.858 11.7366V1.93508H121.816L117.209 13.4714H114.475L109.952 1.93508H109.91V11.7366C109.91 12.5775 110.037 12.9985 110.164 13.4718H107.839C107.965 12.9985 108.093 12.578 108.093 11.7366V1.72557C108.093 0.884123 107.965 0.463158 107.839 0.000484983H113.15L116.999 9.78113L120.913 0H125.94C125.813 0.462673 125.687 0.883638 125.687 1.7246V11.7366C125.687 12.5775 125.813 12.9985 125.939 13.4718H121.606ZM129.101 13.4718C129.227 12.9985 129.354 12.578 129.354 11.7366V1.72557C129.354 0.884123 129.227 0.463158 129.101 0H133.549C133.423 0.462673 133.297 0.884123 133.297 1.72557V11.7366C133.297 12.5775 133.423 12.9985 133.549 13.4718H129.101ZM147.769 13.4748H136.736C136.863 13.0145 136.99 12.5955 136.99 11.7579V1.72896C136.99 0.886063 136.863 0.464613 136.736 0.000484983H141.186C141.059 0.464613 140.932 0.886063 140.932 1.72896V11.7594H146.128C147.033 11.7594 147.601 11.6333 148.106 11.4432L147.769 13.4748ZM161.105 13.4748H150.072C150.199 13.0145 150.324 12.5955 150.324 11.7579V1.72896C150.324 0.886063 150.199 0.464613 150.072 0.000484983H154.52C154.394 0.464613 154.268 0.886063 154.268 1.72896V11.7594H159.464C160.369 11.7594 160.936 11.6333 161.442 11.4432L161.105 13.4748ZM174.44 13.4748H163.408C163.534 13.0145 163.66 12.5955 163.66 11.7579V1.71684C163.66 0.879273 163.534 0.460733 163.408 0H174.44L174.777 2.03256C174.272 1.84293 173.704 1.71587 172.8 1.71587H167.604V5.80621H172.252C172.989 5.80621 173.661 5.68012 174.124 5.49V7.84023C173.661 7.64963 172.99 7.52208 172.252 7.52208H167.604V11.7584H172.8C173.704 11.7584 174.272 11.6309 174.777 11.4403L174.44 13.4748Z" fill="#1A1A1A"/>
</g>
<defs>
<clipPath id="clip0_8794_6091">
<rect width="175" height="13.58" fill="white"/>
</clipPath>
</defs>
</svg>
