<svg width="79" height="14" viewBox="0 0 79 14" fill="none" xmlns="http://www.w3.org/2000/svg">
<path fill-rule="evenodd" clip-rule="evenodd" d="M46.9854 1.82069H48.2571C49.0288 1.82069 49.2991 1.99462 49.2991 2.6695V10.9833C49.2991 11.6394 49.0288 11.8901 48.2571 11.8901H46.9854V13.2341H59.9858V7.71445H58.7566C58.7566 10.4357 57.6788 11.8668 55.8644 11.8668H52.2163V7.44416H52.9325C54.1096 7.44416 54.782 7.96596 54.782 8.9299V9.70239H56.1922V3.56421H54.782V4.23992C54.782 5.18718 54.0717 5.76446 52.9325 5.76446H52.2163V1.82069H55.6137C58.1043 1.82069 58.6215 3.25471 58.7566 5.3974H59.9858V0.359968H46.9854V1.82069ZM41.2664 11.8668H38.1856V2.7279C38.1856 2.0526 38.4559 1.82111 39.228 1.82111H40.3859V0.392503H33.1978V1.82111H34.2018C34.9739 1.82111 35.2441 2.0526 35.2441 2.7279V10.9833C35.2441 11.6394 34.9739 11.8905 34.2018 11.8905H33.1978V13.267H45.3807V7.61184H43.9918C43.9526 9.83086 43.968 11.8668 41.2664 11.8668ZM24.0806 0C19.6409 0 16.8771 3.42364 16.8617 6.64456C16.8417 10.8136 19.6025 13.4384 23.9455 13.4384C28.5583 13.4384 31.2416 10.8524 31.2416 6.43183C31.2416 3.15627 28.346 0 24.0806 0ZM23.9839 11.9197C21.6676 11.9197 20.3358 9.84837 20.3358 6.54778C20.3358 3.32436 21.7256 1.6601 24.0998 1.6601C26.3772 1.6601 27.7091 3.36316 27.7091 6.68293C27.7095 9.92554 26.3585 11.9197 23.9839 11.9197ZM77.0648 1.82069H78.4171V0.374567H71.8818V1.82069H72.7365C73.0576 1.8699 73.2708 2.199 72.9509 2.51976L71.1344 4.60364L69.6916 2.8401C69.3704 2.46637 69.4242 1.82444 70.0119 1.82444L70.6718 1.82027V0.374147H63.2251V1.82027C65.0954 1.87366 65.5626 2.0918 66.2379 2.96023L69.2636 6.63371L65.1488 10.9616C64.4156 11.7917 64.3455 11.8659 63.2255 11.8659V13.2478H69.7446V11.8659H68.1846C67.722 11.8659 67.6248 11.5302 67.6248 11.2799C67.6248 11.0288 67.9531 10.7393 68.0882 10.5654L70.3856 7.96554L72.6839 10.7009C72.7995 10.8553 72.9917 11.0292 72.9917 11.2223C72.9917 11.4734 72.7799 11.8664 72.3361 11.8664H71.0438V13.2482H78.4175V11.8664C77.2525 11.8664 77.1482 11.8113 76.103 10.5349L72.256 5.99304L74.8742 3.16086C75.8385 2.13811 76.216 1.82069 77.0648 1.82069ZM13.7959 9.54973V10.2108C13.7959 11.0021 13.3338 11.4071 12.948 11.4071C12.3302 11.4071 12.2918 10.6546 12.2531 10.2108V9.67653C12.2531 7.91299 11.4518 7.21808 10.4365 6.68376C12.3281 6.24038 13.5832 5.11043 13.5832 3.54668C13.5832 1.51995 12.1934 0.361637 9.72328 0.361637H0.380859V1.82111H1.64595C2.41802 1.82111 2.68831 1.99963 2.68831 2.67493V10.96C2.68831 11.6161 2.41802 11.8668 1.64595 11.8668H0.380859V13.2357H7.65776V11.8668H6.65377C5.8817 11.8668 5.61142 11.6161 5.61142 10.96V7.27147H6.90946C8.29927 7.27147 9.31744 8.04855 9.3946 9.51552L9.51056 11.2094C9.58772 12.7535 10.6301 13.5832 12.4637 13.5832C14.4133 13.5832 14.8713 12.6376 14.8713 10.63V9.5493L13.7959 9.54973ZM7.87173 5.59594H5.61308V1.80984H7.62022C9.5506 1.80984 10.2451 2.45011 10.2451 3.70436C10.2455 4.99739 9.49304 5.59594 7.87173 5.59594Z" fill="white"/>
</svg>
