<svg width="23" height="24" viewBox="0 0 23 24" fill="none" xmlns="http://www.w3.org/2000/svg">
<path d="M11.7159 0.949219C5.487 0.949219 0.431641 6.00458 0.431641 12.2335C0.431641 18.4624 5.487 23.5178 11.7159 23.5178C17.9449 23.5178 23.0002 18.4624 23.0002 12.2335C23.0002 6.00458 17.9449 0.949219 11.7159 0.949219ZM16.9518 8.62254C16.7826 10.4055 16.0491 14.7386 15.6767 16.7359C15.5187 17.5823 15.2028 17.8644 14.9094 17.8982C14.2549 17.9546 13.7584 17.4694 13.1265 17.0519C12.1334 16.3974 11.5692 15.9912 10.6101 15.3593C9.49293 14.6258 10.2151 14.2195 10.8583 13.5651C11.0276 13.3958 13.9164 10.7666 13.9728 10.5296C13.9806 10.4937 13.9796 10.4564 13.9697 10.421C13.9599 10.3856 13.9416 10.3532 13.9164 10.3265C13.8487 10.27 13.7584 10.2926 13.6794 10.3039C13.5778 10.3265 11.998 11.3759 8.91743 13.4522C8.46605 13.7569 8.05982 13.9149 7.69872 13.9036C7.29249 13.8923 6.52516 13.6779 5.94966 13.4861C5.23875 13.2604 4.68582 13.1363 4.73095 12.7413C4.75352 12.5382 5.03563 12.3351 5.56599 12.1207C8.861 10.6876 11.0502 9.73968 12.1447 9.28831C15.2818 7.97933 15.925 7.75364 16.3538 7.75364C16.444 7.75364 16.6584 7.77621 16.7939 7.88906C16.9067 7.97933 16.9406 8.10346 16.9518 8.19373C16.9406 8.26144 16.9631 8.46456 16.9518 8.62254Z" fill="url(#paint0_linear_8813_527)"/>
<defs>
<linearGradient id="paint0_linear_8813_527" x1="12.9919" y1="-3.93532" x2="26.3624" y2="44.0895" gradientUnits="userSpaceOnUse">
<stop offset="0.15" stop-color="#F6BA83"/>
<stop offset="0.49" stop-color="#915D47"/>
</linearGradient>
</defs>
</svg>
