<svg width="22" height="22" viewBox="0 0 22 22" fill="none" xmlns="http://www.w3.org/2000/svg">
<path d="M17.47 4.50153C16.6295 3.6528 15.6285 2.97984 14.5253 2.52187C13.422 2.0639 12.2387 1.83008 11.0442 1.83403C6.03922 1.83403 1.96005 5.9132 1.96005 10.9182C1.96005 12.5224 2.38172 14.0807 3.17005 15.4557L1.88672 20.1674L6.69922 18.9024C8.02838 19.6265 9.52255 20.0115 11.0442 20.0115C16.0492 20.0115 20.1284 15.9324 20.1284 10.9274C20.1284 8.4982 19.1842 6.2157 17.47 4.50153ZM11.0442 18.4715C9.68755 18.4715 8.35838 18.1049 7.19422 17.4174L6.91922 17.2524L4.05922 18.004L4.82005 15.2174L4.63672 14.9332C3.8828 13.7297 3.48257 12.3384 3.48172 10.9182C3.48172 6.75653 6.87338 3.36487 11.035 3.36487C13.0517 3.36487 14.9492 4.1532 16.37 5.5832C17.0737 6.28341 17.6313 7.11636 18.0105 8.03375C18.3898 8.95114 18.5831 9.9347 18.5792 10.9274C18.5975 15.089 15.2059 18.4715 11.0442 18.4715ZM15.1875 12.8249C14.9584 12.7149 13.84 12.1649 13.6384 12.0824C13.4275 12.009 13.2809 11.9724 13.125 12.1924C12.9692 12.4215 12.5384 12.9349 12.41 13.0815C12.2817 13.2374 12.1442 13.2557 11.915 13.1365C11.6859 13.0265 10.9525 12.779 10.0909 12.009C9.41255 11.404 8.96338 10.6615 8.82588 10.4324C8.69755 10.2032 8.80755 10.084 8.92672 9.96487C9.02755 9.86403 9.15588 9.69903 9.26588 9.5707C9.37588 9.44237 9.42172 9.34153 9.49505 9.19487C9.56838 9.03903 9.53172 8.9107 9.47672 8.8007C9.42172 8.6907 8.96338 7.57237 8.78005 7.11403C8.59672 6.67403 8.40422 6.72903 8.26672 6.71987H7.82672C7.67088 6.71987 7.43255 6.77487 7.22172 7.00403C7.02005 7.2332 6.43338 7.7832 6.43338 8.90153C6.43338 10.0199 7.24922 11.1015 7.35922 11.2482C7.46922 11.404 8.96338 13.6957 11.2367 14.6765C11.7775 14.9149 12.1992 15.0524 12.5292 15.1532C13.07 15.3274 13.565 15.2999 13.9592 15.2449C14.3992 15.1807 15.3067 14.6949 15.49 14.1632C15.6825 13.6315 15.6825 13.1824 15.6184 13.0815C15.5542 12.9807 15.4167 12.9349 15.1875 12.8249Z" fill="white"/>
</svg>
