<svg width="29" height="29" viewBox="0 0 29 29" fill="none" xmlns="http://www.w3.org/2000/svg">
<path d="M22.7963 5.9585C21.7312 4.88296 20.4627 4.03017 19.0647 3.44982C17.6666 2.86947 16.1671 2.57317 14.6534 2.57819C8.31096 2.57819 3.14176 7.74739 3.14176 14.0898C3.14176 16.1227 3.6761 18.0974 4.67509 19.8398L3.04883 25.8106L9.14732 24.2075C10.8317 25.1252 12.7251 25.6131 14.6534 25.6131C20.9958 25.6131 26.165 20.4439 26.165 14.1014C26.165 11.0232 24.9686 8.13072 22.7963 5.9585ZM14.6534 23.6616C12.9342 23.6616 11.2499 23.1969 9.7746 22.3257L9.42611 22.1166L5.80186 23.0691L6.76601 19.5378L6.53368 19.1777C5.57831 17.6526 5.07112 15.8895 5.07004 14.0898C5.07004 8.81608 9.36803 4.51809 14.6418 4.51809C17.1973 4.51809 19.6019 5.51708 21.4024 7.32921C22.2941 8.21652 23.0007 9.27206 23.4813 10.4346C23.9618 11.5971 24.2068 12.8435 24.2019 14.1014C24.2251 19.3752 19.9271 23.6616 14.6534 23.6616ZM19.9039 16.506C19.6135 16.3666 18.1963 15.6696 17.9408 15.5651C17.6736 15.4722 17.4877 15.4257 17.2903 15.7045C17.0928 15.9949 16.5468 16.6454 16.3842 16.8312C16.2216 17.0287 16.0473 17.052 15.7569 16.9009C15.4665 16.7615 14.5372 16.4479 13.4453 15.4722C12.5857 14.7055 12.0165 13.7646 11.8423 13.4742C11.6797 13.1838 11.819 13.0328 11.9701 12.8817C12.0978 12.754 12.2605 12.5449 12.3999 12.3822C12.5392 12.2196 12.5973 12.0918 12.6903 11.906C12.7832 11.7085 12.7367 11.5459 12.667 11.4065C12.5973 11.2671 12.0165 9.84992 11.7842 9.26911C11.5519 8.71153 11.3079 8.78123 11.1337 8.76961H10.5761C10.3786 8.76961 10.0766 8.83931 9.80945 9.12971C9.55389 9.42012 8.81045 10.1171 8.81045 11.5343C8.81045 12.9514 9.8443 14.3222 9.98369 14.508C10.1231 14.7055 12.0165 17.6095 14.8973 18.8525C15.5827 19.1545 16.117 19.3287 16.5352 19.4565C17.2206 19.6772 17.8478 19.6424 18.3473 19.5727C18.9049 19.4914 20.0549 18.8757 20.2872 18.202C20.5312 17.5282 20.5312 16.959 20.4499 16.8312C20.3686 16.7035 20.1943 16.6454 19.9039 16.506Z" fill="url(#paint0_linear_8813_529)"/>
<defs>
<linearGradient id="paint0_linear_8813_529" x1="15.9139" y1="-2.4501" x2="29.7369" y2="46.9515" gradientUnits="userSpaceOnUse">
<stop offset="0.15" stop-color="#F6BA83"/>
<stop offset="0.49" stop-color="#915D47"/>
</linearGradient>
</defs>
</svg>
