<svg width="24" height="18" viewBox="0 0 24 18" fill="none" xmlns="http://www.w3.org/2000/svg">
<path d="M12.2402 0.228516C12.8783 0.23169 14.4746 0.245443 16.1713 0.305747L16.7735 0.329022C18.481 0.399906 20.1873 0.522631 21.0344 0.731051C22.1636 1.01247 23.0502 1.83134 23.3501 2.87026C23.828 4.52069 23.8878 7.73904 23.8949 8.51876L23.8961 8.67957V8.86365C23.8878 9.64338 23.828 12.8628 23.3501 14.5121C23.0466 15.5542 22.1588 16.3742 21.0344 16.6514C20.1873 16.8598 18.481 16.9825 16.7735 17.0534L16.1713 17.0777C14.4746 17.137 12.8783 17.1518 12.2402 17.1539L11.9594 17.155H11.6547C10.3045 17.1475 4.65759 17.0936 2.86051 16.6514C1.73256 16.3699 0.844771 15.5511 0.54486 14.5121C0.0669127 12.8617 0.0071692 9.64338 0 8.86365V8.51876C0.0071692 7.73904 0.0669127 4.51964 0.54486 2.87026C0.848356 1.82816 1.73614 1.00824 2.86171 0.732108C4.65759 0.28882 10.3057 0.234863 11.6559 0.228516H12.2402ZM9.55774 4.98937V12.3952L16.7269 8.69226L9.55774 4.98937Z" fill="url(#paint0_linear_8813_528)"/>
<defs>
<linearGradient id="paint0_linear_8813_528" x1="13.2991" y1="-3.43489" x2="20.6663" y2="33.9227" gradientUnits="userSpaceOnUse">
<stop offset="0.15" stop-color="#F6BA83"/>
<stop offset="0.49" stop-color="#915D47"/>
</linearGradient>
</defs>
</svg>
