<svg width="229" height="35" viewBox="0 0 229 35" fill="none" xmlns="http://www.w3.org/2000/svg">
<g clip-path="url(#clip0_8813_485)">
<path fill-rule="evenodd" clip-rule="evenodd" d="M224.816 24.8617L224.845 25.5294H217.711V24.8617C219.634 24.8617 219.428 24.3065 219.428 21.8904V8.58349C219.428 7.56425 219.458 6.83623 219.343 6.51661C219.11 5.67139 218.761 5.64298 217.565 5.58497V4.97296L224.789 4.94336V5.58497C222.895 5.58497 222.953 6.1958 222.953 8.58349V21.8904C222.953 24.1029 222.865 24.8617 224.816 24.8617ZM203.473 25.7637C195.844 25.7637 196.368 24.6285 195.175 22.7652C193.749 20.5527 192.526 17.4086 189.875 17.4086C189.175 17.4358 186.846 17.4086 186.409 17.4086C185.186 17.4086 184.488 17.4666 183.702 17.4086V23.4636C183.729 24.8901 184.43 25.0085 185.623 25.0085V25.7649H178.345V25.0085C179.335 25.0357 180.148 25.0665 180.148 23.9585V9.28429V7.74064C180.148 6.25617 179.626 5.87737 178.345 5.87737V5.23576H187.66C190.69 5.23576 192.902 5.14815 194.329 5.46896C197.56 6.19699 199.542 7.85665 199.57 10.5356C199.57 13.186 198.232 15.5157 193.108 16.477C196.484 16.8534 196.835 18.3402 198.144 20.6107C199.543 23.1144 200.153 25.0665 203.415 25.0357C203.415 25.2109 203.473 25.5897 203.473 25.7637ZM183.703 15.3689C186.352 15.3393 190.226 15.5441 192.584 14.9321C193.923 14.4373 195.698 13.6797 195.698 10.7972C195.698 8.75869 194.681 8.08986 193.457 7.50743C191.157 6.4006 186.729 6.77941 183.703 6.77941V15.3689ZM158.487 20.5219H146.256L145.063 22.6184C144.626 23.4045 144.335 23.9289 144.335 24.2485C144.365 25.2677 144.86 25.3565 145.995 25.3257L145.965 25.9958H139.646V25.4133C141.045 25.3837 141.279 24.9185 141.686 24.2201C142.035 23.5501 142.326 23.0552 143.083 21.598L151.556 5.46778H154.236L163.175 21.7744C164.778 24.7149 164.689 25.2097 166.496 25.2097V25.9958H158.924V25.2677C160.642 25.1801 160.906 24.5977 159.943 22.9972L158.487 20.5219ZM157.41 18.2207L152.255 8.5539L147.364 18.2207H157.41ZM130.884 17.1742C128.787 17.2038 128.641 17.2902 128.699 19.3287L128.757 22.2692C127.855 24.2485 124.884 25.5897 122.644 26.1698C120.856 26.6419 119.017 26.8865 117.169 26.8978C112.509 26.8978 108.725 25.8502 105.987 23.5193C103.716 21.598 102.318 19.1523 102.318 16.4746C102.318 13.2133 103.715 10.5924 106.539 8.4367C109.334 6.28221 112.799 5.17538 117.08 5.20498C118.71 5.23339 120.458 5.40859 122.176 5.81581C123.748 6.19462 125.408 6.77704 126.747 7.59148L127.824 12.1633L127.156 12.4261C126.486 11.028 124.68 9.13513 122.992 8.20468C121.505 7.35946 119.467 6.83623 117.283 6.80663C114.751 6.77822 112.188 7.68026 110.674 8.7291C108.345 10.3308 106.364 12.8936 106.364 16.0082C106.364 19.2399 108.229 21.8324 110.15 23.086C112.043 24.2793 114.314 25.0925 117.225 25.0653C118.974 25.0357 120.837 24.5977 121.856 24.1917C122.962 23.7549 124.506 23.0564 125.174 21.7756L125.204 19.9999C125.204 19.3867 125.32 17.8146 124.855 17.4654C124.36 17.1446 123.805 17.1742 122.992 17.1742V16.4758H130.883L130.884 17.1742ZM81.2076 5.99219V6.63262C80.3055 6.66221 80.1303 6.60303 79.7811 6.89424C79.5479 7.12744 79.3739 7.41865 79.3739 8.37988V24.2485H89.0122C91.5455 24.2485 93.1472 23.1428 93.8456 22.0076L94.5145 22.2692L92.3896 26.5214H74.0741V25.8513C75.3265 25.8217 75.8498 25.5897 75.8498 24.2485V9.28193C75.8498 8.14668 75.8498 7.50625 75.5585 7.12744C75.2673 6.71904 74.9761 6.63262 73.9569 6.63262V5.99219H81.2076ZM43.2969 6.16739V6.92501C42.1321 6.92501 41.288 7.18663 41.8409 8.49708C42.0445 9.0499 42.4529 9.74952 42.9477 10.6812L49.7319 23.4636C50.576 21.4264 57.3898 8.67228 57.5354 7.79865C57.7106 6.69181 55.9918 6.92501 55.9338 6.92501V6.19698L62.048 6.16857V6.9262C61.5816 6.9262 60.8548 6.809 60.5932 7.12981C60.1563 7.68263 59.0495 10.0123 57.5354 12.9244C55.2934 17.321 52.3813 23.1452 50.576 26.7273H47.6355L38.9003 10.1875C38.2019 8.81907 37.6195 7.48021 37.1531 7.189C36.7458 6.95579 36.4546 6.92738 35.755 6.92738V6.16976H43.2969V6.16739ZM20.2924 15.8353C22.0693 16.1254 23.5834 16.5338 24.5434 17.0582C25.6207 17.669 26.8139 18.5131 26.8139 21.2796C26.8435 23.5501 25.417 24.8889 24.6298 25.3257C22.5914 26.9286 17.6124 27.0162 14.5842 27.0162H3.52179V26.3154C4.45343 26.345 4.71623 26.2574 5.09504 25.8206C5.35665 25.5009 5.26905 24.3065 5.26905 23.1428V9.42872C5.26905 8.14668 5.21105 7.76905 4.80264 7.41984C4.36583 7.07062 4.10421 7.09903 3.375 7.09903L3.40459 6.429C10.5677 6.4586 13.4502 6.37101 17.7887 6.4006C20.7009 6.54621 24.4854 7.65304 24.4854 11.1464C24.4854 12.4852 23.8746 13.8253 22.9429 14.4953C22.0409 15.1937 21.7201 15.3393 20.2924 15.8353ZM8.7328 15.2813H13.5378C15.5467 15.2813 18.254 15.2233 19.7692 14.0005C20.4096 13.5057 21.0217 12.1952 21.0217 11.4376C21.0217 10.2147 20.7304 9.63233 19.478 8.81789C18.1972 8.00226 15.5182 8.14786 13.217 8.14786H8.7328V15.2813ZM8.7328 24.7433H14.5274C18.692 24.7433 22.9133 24.5125 22.9133 21.134C22.9133 19.9111 22.1557 18.8907 21.3697 18.3083C19.6804 17.057 17.1767 17.0854 13.5082 17.115C11.9349 17.1422 10.3049 17.115 8.7328 17.115V24.7433Z" fill="#1A1A1A"/>
</g>
<defs>
<clipPath id="clip0_8813_485">
<rect width="228.181" height="34.4925" fill="white" transform="translate(0.0234375 0.507812)"/>
</clipPath>
</defs>
</svg>
