<svg width="24" height="32" viewBox="0 0 24 32" fill="none" xmlns="http://www.w3.org/2000/svg">
<path d="M23.3945 4.19546H16.127C16.127 4.19546 17.8695 -1.56329 21.9707 0.412958C21.9707 0.412958 23.777 1.00796 23.3732 4.19546H23.3945Z" fill="#915E48"/>
<path d="M16.7015 32.0078H0V6.06085C0 6.06085 0.605428 -0.163896 5.97077 0.0114486H20C20 0.0114486 16.4301 0.0114479 16.5553 17.1368C16.5553 17.1368 16.7014 36.5827 16.7015 26.037C16.7015 26.0256 16.7015 32.0078 16.7015 32.0078Z" fill="url(#paint0_linear_13554_123)"/>
<path d="M11.0691 24.6933C11.0691 25.4671 10.8135 26.1373 10.2953 26.7107L9.68727 26.1994C10.1087 25.7158 10.316 25.2114 10.316 24.6725C10.316 24.41 10.2607 24.2027 10.1502 24.0507C10.0396 23.8987 9.88764 23.8158 9.69418 23.8158C9.51455 23.8158 9.37636 23.8918 9.26582 24.0369C9.15527 24.1889 9.05164 24.4791 8.948 24.9074C8.81673 25.474 8.65091 25.8816 8.44364 26.1373C8.23636 26.3929 7.92545 26.5173 7.49709 26.5173C7.08255 26.5173 6.75091 26.3653 6.48836 26.0544C6.22582 25.7504 6.09455 25.3496 6.09455 24.866C6.09455 24.2027 6.30182 23.6224 6.70255 23.1111L7.34509 23.5671C7.01345 24.0162 6.84764 24.4514 6.84764 24.8798C6.84764 25.1285 6.90291 25.322 7.01345 25.4602C7.124 25.5984 7.26909 25.6674 7.43491 25.6674C7.62836 25.6674 7.77345 25.5914 7.87709 25.4394C7.98073 25.2874 8.08436 24.9765 8.19491 24.5205C8.32618 23.9885 8.49891 23.5947 8.71309 23.346C8.93418 23.0973 9.23818 22.966 9.62509 22.966C10.0742 22.966 10.4265 23.1249 10.6822 23.4427C10.9447 23.7605 11.0691 24.182 11.0691 24.6933ZM11 22.4824L6.12909 20.3544V19.5667L11 17.4387V18.3369L9.83236 18.8274V21.1144L11 21.6118V22.4824ZM9.07927 20.8034V19.1384L7.14473 19.9744L9.07927 20.8034ZM11 16.6094H6.16364V15.7595H10.2262V13.217H11V16.6094ZM11 12.3317H6.16364V8.74584H6.92364V11.4818H8.18109V9.05675H8.94109V11.4818H10.24V8.7113H11V12.3317Z" fill="white"/>
<defs>
<linearGradient id="paint0_linear_13554_123" x1="11.1307" y1="-6.91798" x2="38.4032" y2="54.3059" gradientUnits="userSpaceOnUse">
<stop offset="0.115385" stop-color="#F6BA83"/>
<stop offset="0.456731" stop-color="#915D47"/>
</linearGradient>
</defs>
</svg>
