<svg width="23" height="23" viewBox="0 0 23 23" fill="none" xmlns="http://www.w3.org/2000/svg">
<path d="M11.8465 22.4008C10.3219 22.4008 8.88605 22.1168 7.53877 21.5488C6.19148 20.98 5.01815 20.208 4.01877 19.2328C3.01938 18.2576 2.22759 17.1136 1.64338 15.8008C1.05918 14.488 0.767897 13.088 0.769538 11.6008C0.769538 10.1096 1.06082 8.70838 1.64338 7.39718C2.22677 6.08518 3.01856 4.94238 4.01877 3.96878C5.01897 2.99518 6.19231 2.22318 7.53877 1.65278C8.88605 1.08478 10.3219 0.800781 11.8465 0.800781C13.3759 0.800781 14.813 1.08478 16.1578 1.65278C17.5035 2.22158 18.676 2.99358 19.6754 3.96878C20.6748 4.94398 21.4661 6.08678 22.0495 7.39718C22.6321 8.70918 22.9234 10.1104 22.9234 11.6008C22.9234 13.0872 22.6321 14.4872 22.0495 15.8008C21.4661 17.1144 20.6744 18.2584 19.6741 19.2328C18.6739 20.2072 17.5018 20.9792 16.1578 21.5488C14.8138 22.1184 13.3767 22.4024 11.8465 22.4008ZM11.8465 21.2104C12.5685 20.3056 13.1642 19.4172 13.6335 18.5452C14.102 17.6732 14.4832 16.6972 14.7769 15.6172H8.916C9.24174 16.758 9.63066 17.7644 10.0828 18.6364C10.5357 19.5084 11.1236 20.3664 11.8465 21.2104ZM10.2797 21.0304C9.70533 20.3704 9.18102 19.5544 8.70677 18.5824C8.23251 17.6112 7.87969 16.6224 7.6483 15.616H2.92831C3.63395 17.108 4.63374 18.332 5.92769 19.288C7.22246 20.2432 8.67313 20.824 10.2797 21.0304ZM13.4132 21.0304C15.0198 20.824 16.4705 20.2432 17.7652 19.288C19.0592 18.332 20.059 17.108 20.7646 15.616H16.0458C15.734 16.6376 15.3414 17.634 14.868 18.6052C14.3937 19.5772 13.9088 20.3864 13.4132 21.0304ZM2.42615 14.4172H7.3923C7.29877 13.9244 7.23313 13.4444 7.19538 12.9772C7.156 12.5108 7.13631 12.052 7.13631 11.6008C7.13631 11.1496 7.15559 10.6908 7.19415 10.2244C7.23272 9.75798 7.29836 9.27798 7.39107 8.78438H2.42738C2.29364 9.20038 2.18902 9.65358 2.11354 10.144C2.03805 10.6336 2.00031 11.1192 2.00031 11.6008C2.00031 12.0824 2.03764 12.5684 2.11231 13.0588C2.18697 13.5492 2.29159 14.0016 2.42615 14.416M8.62307 14.416H15.0698C15.1634 13.924 15.229 13.452 15.2668 13C15.3061 12.5488 15.3258 12.0824 15.3258 11.6008C15.3258 11.1192 15.3066 10.6528 15.268 10.2016C15.2294 9.75038 15.1638 9.27838 15.0711 8.78558H8.62184C8.52913 9.27758 8.46348 9.74958 8.42492 10.2016C8.38636 10.6528 8.36707 11.1192 8.36707 11.6008C8.36707 12.0824 8.38636 12.5488 8.42492 13C8.46348 13.4512 8.53036 13.9232 8.62307 14.416ZM16.3018 14.416H21.2668C21.4005 14.0008 21.5051 13.5484 21.5806 13.0588C21.6553 12.5684 21.6926 12.0824 21.6926 11.6008C21.6926 11.1192 21.6553 10.6332 21.5806 10.1428C21.5059 9.65238 21.4013 9.19998 21.2668 8.78558H16.3006C16.3941 9.27758 16.4598 9.75718 16.4975 10.2244C16.5369 10.6916 16.5566 11.1504 16.5566 11.6008C16.5566 12.0512 16.5373 12.51 16.4988 12.9772C16.4602 13.4444 16.3946 13.9244 16.3018 14.4172M16.0458 7.58558H20.7646C20.0434 6.06238 19.0555 4.83838 17.8009 3.91358C16.5464 2.98878 15.0838 2.40038 13.4132 2.14838C13.9876 2.88518 14.5041 3.72798 14.9628 4.67678C15.4214 5.62478 15.7825 6.59438 16.0458 7.58558ZM8.916 7.58558H14.7769C14.452 6.45918 14.0512 5.44078 13.5745 4.53038C13.0977 3.61998 12.5217 2.77358 11.8465 1.99118C11.1712 2.77278 10.5952 3.61918 10.1185 4.53038C9.64174 5.44158 9.2401 6.45998 8.916 7.58558ZM2.92954 7.58558H7.6483C7.91169 6.59518 8.27272 5.62558 8.73138 4.67678C9.19005 3.72798 9.70656 2.88518 10.2809 2.14838C8.59559 2.40118 7.12933 2.99318 5.88215 3.92438C4.63497 4.85718 3.65036 6.07718 2.92831 7.58438" fill="url(#paint0_linear_8813_555)"/>
<defs>
<linearGradient id="paint0_linear_8813_555" x1="13.099" y1="-3.87413" x2="25.6202" y2="42.2534" gradientUnits="userSpaceOnUse">
<stop offset="0.15" stop-color="#F6BA83"/>
<stop offset="0.49" stop-color="#915D47"/>
</linearGradient>
</defs>
</svg>
