<svg width="254" height="48" viewBox="0 0 254 48" fill="none" xmlns="http://www.w3.org/2000/svg">
<g clip-path="url(#clip0_8813_489)">
<path d="M125.876 -65.6013C124.402 -65.0899 120.411 -63.0946 118.316 -61.8112C116.451 -60.6682 114.987 -59.856 112.67 -58.6728C109.191 -56.8881 107.156 -55.7952 106.534 -55.3741C105.862 -54.9229 104.88 -54.4215 103.687 -53.9302C102.534 -53.4489 101.852 -53.098 100.588 -52.346C98.8136 -51.2832 95.2842 -49.4282 83.172 -43.1415C76.9755 -39.9229 73.3959 -38.0379 71.4708 -36.9651C70.7489 -36.564 69.1747 -35.7318 67.9815 -35.1302C66.7884 -34.5186 65.6754 -33.927 65.4949 -33.8067C64.9234 -33.4156 64.3318 -32.7839 64.2717 -32.5032C64.1914 -32.1523 64.4221 -31.701 64.8432 -31.3702C65.2442 -31.0694 67.6607 -29.7659 70.789 -28.1516C72.0624 -27.4999 75.0102 -25.9558 77.3565 -24.7125C81.9587 -22.276 88.7268 -18.8769 88.9874 -18.8769C89.0677 -18.8769 89.6693 -18.516 90.311 -18.0848C91.434 -17.3228 92.0255 -17.0621 92.9079 -16.9217C93.0984 -16.8916 93.4493 -16.7412 93.6699 -16.5908C96.3571 -14.776 97.1993 -14.3148 108.239 -8.65972C111.698 -6.89503 113.563 -5.88233 114.796 -5.10025C115.277 -4.79945 115.849 -4.50867 116.049 -4.47859C116.621 -4.3683 118.175 -3.67646 121.374 -2.10227C125.956 0.153736 127.58 0.775391 128.874 0.775391C129.696 0.775391 130.267 0.56483 131.912 -0.347598C132.644 -0.758693 134.609 -1.81149 136.263 -2.68382C142.921 -6.19316 144.335 -6.94516 144.866 -7.28607C145.177 -7.4866 146.641 -8.27871 148.115 -9.04074C151.033 -10.5447 151.875 -11.016 152.527 -11.5173C152.757 -11.6978 153.64 -12.1891 154.482 -12.6203C156.477 -13.6229 157.971 -14.4752 159.796 -15.6283C161.36 -16.6309 162.984 -17.4732 163.335 -17.4732C163.696 -17.4732 164.188 -17.6837 164.288 -17.8843C164.438 -18.155 165.05 -18.546 166.845 -19.5387C167.727 -20.02 169.803 -21.1831 171.457 -22.1356C173.111 -23.0781 175.618 -24.4818 177.022 -25.2439C178.426 -25.9959 180.411 -27.0988 181.434 -27.6803C182.456 -28.2619 184.081 -29.1142 185.043 -29.5754C187.891 -30.939 188.462 -31.2398 188.893 -31.6208C189.304 -31.9818 189.304 -31.9918 189.304 -32.6937C189.304 -33.8668 189.234 -33.927 183.88 -36.7846C177.172 -40.3641 175.809 -41.086 171.357 -43.3922C163.245 -47.5833 158.152 -50.2705 154.562 -52.2257C153.319 -52.8975 151.333 -53.9503 150.15 -54.5519C148.967 -55.1535 146.48 -56.467 144.636 -57.4797C140.976 -59.475 137.737 -61.1093 136.594 -61.5505C135.541 -61.9415 134.549 -62.4529 133.827 -62.9643C132.634 -63.8165 129.796 -65.0097 127.731 -65.5511C126.588 -65.852 126.588 -65.852 125.876 -65.6013ZM128.994 -63.4355C129.696 -63.2049 131.059 -62.5933 132.453 -61.8814C135.301 -60.4476 144.555 -55.725 147.744 -54.1007C149.037 -53.4289 152.807 -51.5138 156.116 -49.8293C165.16 -45.2371 168.629 -43.4022 169.913 -42.5198C170.294 -42.2592 170.745 -42.0386 170.986 -42.0085C172.43 -41.7678 186.146 -34.0774 186.688 -33.195C187.028 -32.6335 185.615 -31.6208 180.922 -29.0941C177.694 -27.3595 175.768 -26.2866 173.091 -24.7125C171.978 -24.0607 170.083 -22.9879 168.9 -22.3361C167.717 -21.6844 166.002 -20.7519 165.09 -20.2506C162.974 -19.0875 158.904 -16.7613 154.813 -14.3649C146.751 -9.65236 142.851 -7.52671 132.934 -2.44318L128.402 -0.116985L126.156 -1.06952C123.038 -2.39304 122.296 -2.74398 121.173 -3.43582C120.04 -4.11763 117.263 -5.5715 109.572 -9.48191C106.584 -11.006 102.503 -13.1316 100.498 -14.1945C95.585 -16.8214 87.4834 -21.0627 79.7128 -25.0734C71.7516 -29.1743 69.3051 -30.5179 67.4902 -31.7813C66.6279 -32.3829 66.5277 -32.5232 66.7282 -32.8842C66.8485 -33.0948 67.1393 -33.2652 67.9314 -33.5861C70.7489 -34.7492 79.5724 -39.0707 81.8685 -40.4142C85.2976 -42.4296 97.5502 -48.9068 107.888 -54.1909C110.204 -55.3741 112.39 -56.5271 112.751 -56.7577C114.054 -57.5799 114.846 -58.0311 117.213 -59.2544C121.013 -61.2397 122.156 -61.8714 123.178 -62.5431C125.003 -63.7363 125.475 -63.9068 126.888 -63.8566C127.67 -63.8266 128.041 -63.7564 128.994 -63.4355Z" fill="#1A1A1A"/>
<path d="M71.5802 16.5855C69.8055 16.7559 68.0207 17.3876 66.5669 18.3602C65.7246 18.9217 64.3008 20.3355 63.7193 21.1777C61.0121 25.1182 60.9118 30.2318 63.4787 34.1021C64.0702 34.9945 65.5642 36.5587 66.3663 37.1302C68.3115 38.5139 70.7881 39.1656 73.0742 38.8949C74.8188 38.6943 77.5461 37.8521 78.9699 37.06L79.401 36.8294V34.4831C79.401 32.8789 79.371 32.1269 79.2907 32.0968C79.2306 32.0767 79.0902 32.4176 78.9599 32.8889C78.8295 33.3501 78.5287 34.1021 78.2881 34.5734C77.1751 36.7291 75.6009 37.9123 73.4652 38.193C71.7507 38.4236 70.1464 37.8521 68.7226 36.5085C66.4064 34.3327 64.9927 30.6329 65.1531 27.1536C65.3436 22.8522 66.9078 19.3529 69.244 17.9491C70.3169 17.3074 70.8282 17.1871 72.3322 17.1771C73.8262 17.1771 74.5882 17.3475 75.7914 17.9491C76.6938 18.4104 77.7166 19.4832 78.2279 20.526C78.4585 20.9872 78.649 21.4685 78.649 21.5988C78.649 21.7492 78.7092 21.8395 78.7994 21.8395C79.02 21.8395 79.02 19.8542 78.7994 19.423C78.5588 18.9718 77.2353 17.9792 76.2125 17.4779C74.8489 16.8161 72.9739 16.4551 71.5802 16.5855Z" fill="#1A1A1A"/>
<path d="M128.619 16.7251C127.345 17.0159 126.463 17.5072 125.51 18.4798C124.167 19.8334 123.696 21.0968 123.595 23.6435C123.525 25.308 123.325 25.7792 122.512 26.2304C122.312 26.3407 122.312 26.3407 122.522 26.3507C122.643 26.3507 122.924 26.2806 123.154 26.2003L123.565 26.06V32.2164C123.565 38.2524 123.565 38.3828 123.365 38.5833C123.254 38.6936 123.124 38.7838 123.064 38.7838C123.014 38.7838 122.964 38.8239 122.964 38.8841C122.964 38.9443 123.666 38.9844 124.869 38.9844C126.072 38.9844 126.774 38.9443 126.774 38.8841C126.774 38.8239 126.734 38.7838 126.674 38.7838C126.623 38.7838 126.483 38.6936 126.373 38.5833C126.172 38.3828 126.172 38.2524 126.172 32.4169V26.451H127.676H129.18V26.0499V25.6489H127.666H126.152L126.202 22.9116C126.252 20.064 126.313 19.6329 126.764 18.6904C127.045 18.1188 127.606 17.5473 128.117 17.3167C128.739 17.036 129.852 17.056 130.293 17.3568C130.794 17.6977 130.885 17.9484 130.885 19.1516C130.885 20.1242 130.905 20.2445 131.115 20.4952C131.587 21.0466 133.061 20.8962 133.301 20.2746C133.562 19.5827 133.101 18.0486 132.469 17.4771C131.607 16.695 130.073 16.3942 128.619 16.7251Z" fill="#1A1A1A"/>
<path d="M82.8574 17.1009C82.8574 17.1511 83.0479 17.2413 83.2886 17.3115C83.5192 17.3817 83.8601 17.5321 84.0406 17.6424C84.7023 18.0434 84.6622 17.4118 84.6622 28.2807C84.6622 38.1169 84.6622 38.147 84.4517 38.4177C84.3414 38.5581 84.1809 38.6784 84.1007 38.6784C84.0205 38.6784 83.9604 38.7185 83.9604 38.7786C83.9604 38.8388 84.6923 38.8789 85.9657 38.8789C87.7906 38.8789 88.3721 38.7987 87.7404 38.6383C87.6101 38.6082 87.4496 38.4678 87.3895 38.3274C87.2992 38.1369 87.2692 35.3696 87.2692 27.5487V17.0207H85.0633C83.8501 17.0207 82.8574 17.0608 82.8574 17.1009Z" fill="#1A1A1A"/>
<path d="M233.762 17.111C233.762 17.1611 233.912 17.2413 234.093 17.2714C234.574 17.3817 235.125 17.6825 235.356 17.9833C235.567 18.254 235.567 18.254 235.567 28.2606C235.567 38.147 235.567 38.2773 235.366 38.4778C235.256 38.5881 235.095 38.6784 235.015 38.6784C234.935 38.6784 234.865 38.7185 234.865 38.7786C234.865 38.8388 235.597 38.8789 236.87 38.8789C238.143 38.8789 238.875 38.8388 238.875 38.7786C238.875 38.7185 238.805 38.6784 238.725 38.6784C238.645 38.6784 238.484 38.5881 238.374 38.4778C238.173 38.2773 238.173 38.147 238.173 27.649V17.0207H235.968C234.694 17.0207 233.762 17.0608 233.762 17.111Z" fill="#1A1A1A"/>
<path d="M173.31 27.3722C171.194 33.0172 169.379 37.7698 169.279 37.9503C169.078 38.2812 168.386 38.6823 168.016 38.6823C167.895 38.6823 167.795 38.7224 167.795 38.7825C167.795 38.8427 168.366 38.8828 169.299 38.8828C170.713 38.8828 171.154 38.7926 170.532 38.6321C170.141 38.5419 169.901 38.2912 169.901 38.0105C169.901 37.8801 170.502 36.1957 171.234 34.2705L172.558 30.7612H176.177H179.797L181.12 34.2104C181.842 36.1154 182.434 37.7498 182.434 37.8501C182.434 38.1609 182.143 38.4717 181.732 38.592C181.511 38.6622 181.331 38.7525 181.331 38.8026C181.331 38.8427 182.735 38.8828 184.439 38.8828C186.445 38.8828 187.548 38.8427 187.548 38.7825C187.548 38.7224 187.467 38.6823 187.377 38.6823C187.026 38.6823 186.164 38.201 185.913 37.8701C185.773 37.6696 183.988 33.1475 181.782 27.322L177.892 17.1249H177.521H177.15L173.31 27.3722ZM177.812 25.6476L179.296 29.6081L176.187 29.6382C174.483 29.6482 173.059 29.6382 173.039 29.6182C172.999 29.578 175.957 21.6369 176.097 21.3963C176.167 21.2759 176.067 21.0152 177.812 25.6476Z" fill="#1A1A1A"/>
<path d="M1.14453 17.4118C1.14453 17.4519 1.37515 17.522 1.65589 17.5521C2.80896 17.6925 3.77152 18.3944 4.25281 19.4672C4.41323 19.8081 6.14785 24.3101 8.12311 29.4739L11.7026 38.8789H12.1137H12.5248L16.335 28.772C19.1424 21.3322 20.2153 18.5949 20.4259 18.3543C20.7968 17.9331 21.2581 17.6524 21.7293 17.5722C22.5415 17.4218 22.0101 17.3215 20.3456 17.3215C18.7013 17.3215 18.1598 17.4118 18.9118 17.5622C19.3731 17.6524 19.5936 17.893 19.5936 18.3041C19.5936 18.5247 18.4506 21.6932 16.5756 26.6363C14.9212 31.018 13.5275 34.6677 13.4974 34.7379C13.4072 34.8883 7.26081 18.8556 7.26081 18.4746C7.26081 18.0936 7.74209 17.6424 8.25346 17.5622C9.32631 17.3917 8.36375 17.3215 4.90454 17.3215C2.83904 17.3215 1.14453 17.3616 1.14453 17.4118Z" fill="#1A1A1A"/>
<path d="M147.709 22.4509C146.646 22.7015 145.563 23.5939 145.072 24.6166C144.862 25.0578 144.781 25.3987 144.751 26.0204C144.681 27.3339 145.092 28.3967 146.065 29.4295C146.295 29.6701 146.336 29.7704 146.225 29.8004C146.145 29.8305 145.814 29.9408 145.493 30.0511C144.13 30.5224 142.836 31.6454 142.425 32.7383C141.593 34.904 142.616 37.531 144.651 38.4836C145.704 38.9749 146.446 39.1152 147.89 39.1152C149.745 39.1152 150.988 38.7442 152.161 37.8519L152.592 37.511L153.094 37.902C153.765 38.4334 154.217 38.654 155.029 38.8445C156.232 39.1253 157.616 38.8646 158.648 38.1627C159.34 37.6914 159.38 37.3104 158.708 37.6714C158.107 37.9922 157.255 37.9622 156.493 37.5812C155.951 37.3104 154.257 35.8666 154.257 35.6761C154.257 35.6059 154.848 34.6233 155.901 32.9689C156.122 32.6079 156.713 31.906 157.214 31.4147C158.137 30.4923 158.929 29.9709 159.571 29.8606C159.791 29.8305 159.932 29.7403 159.952 29.63C159.982 29.4696 159.821 29.4595 157.886 29.4595H155.781L155.71 30.1313C155.56 31.5952 154.848 33.8813 154.227 34.904L153.996 35.2951L153.284 34.4528C152.903 33.9916 151.85 32.6781 150.958 31.525L149.334 29.4194L149.945 29.1988C150.276 29.0785 150.737 28.8579 150.978 28.7075C152.362 27.7851 152.753 27.1935 152.753 25.9402C152.753 24.1053 151.87 22.9622 150.096 22.491C149.454 22.3306 148.321 22.3105 147.709 22.4509ZM149.434 22.8419C149.955 23.1026 150.497 23.7644 150.747 24.4161C151.158 25.509 150.918 27.2737 150.236 28.0859C149.955 28.4268 149.293 28.8579 149.053 28.8579C148.872 28.8579 147.629 27.1935 147.268 26.4616C146.526 24.9375 146.767 23.5137 147.89 22.8319C148.281 22.5812 148.952 22.5913 149.434 22.8419ZM149.704 33.7209L152.462 37.13L152.181 37.3606C152.031 37.4809 151.63 37.7215 151.299 37.882C149.143 38.9548 146.847 38.0825 145.614 35.7162C144.671 33.9214 144.711 32.2871 145.744 31.124C146.085 30.7229 146.727 30.2617 146.867 30.2917C146.917 30.3018 148.19 31.8459 149.704 33.7209Z" fill="#1A1A1A"/>
<path d="M224.882 25.1403C222.435 25.5313 220.56 27.1958 219.718 29.7425C218.475 33.4825 220.239 37.4029 223.719 38.6061C224.28 38.7966 224.581 38.8367 225.634 38.8267C227.509 38.8167 228.822 38.3956 229.935 37.4129C230.447 36.9617 231.148 36.1295 231.148 35.9691C231.148 35.919 230.978 35.8789 230.767 35.8789C230.467 35.8789 230.356 35.929 230.276 36.0994C230.216 36.2298 229.985 36.5707 229.745 36.8715C229.123 37.6636 228.281 38.0346 227.138 38.0346C226.426 38.0346 226.195 37.9945 225.734 37.7739C223.799 36.8515 222.616 34.7358 222.385 31.788L222.325 31.0661H226.987H231.65V30.7853C231.64 30.2238 231.359 28.9905 231.128 28.4591C230.627 27.3662 229.644 26.3134 228.632 25.792C227.589 25.2706 225.925 24.9799 224.882 25.1403ZM227.058 26.0226C227.629 26.3335 228.04 26.8147 228.401 27.5868C228.692 28.2385 228.943 29.3214 228.943 29.9832V30.4645H225.874H222.796L222.866 29.8428C223.007 28.4491 223.498 27.0554 224.06 26.4638C224.24 26.2833 224.611 26.0226 224.882 25.8823C225.523 25.5714 226.316 25.6216 227.058 26.0226Z" fill="#1A1A1A"/>
<path d="M25.6487 25.3154C23.4829 25.7766 22.0892 27.06 22.0892 28.6142C22.0892 29.3762 22.2596 29.6268 22.8713 29.7672C23.4729 29.8976 23.9241 29.7973 24.265 29.4363C24.5357 29.1556 24.5457 29.0954 24.5959 27.9524C24.656 26.5888 24.7563 26.3782 25.5083 25.9471C25.8793 25.7365 26.1099 25.6964 27.0123 25.6663C28.2556 25.6162 28.8071 25.7967 29.2282 26.3581C29.6794 26.9597 29.7396 27.2906 29.7897 29.3762L29.8298 31.3615H29.0277C26.5611 31.3615 24.0544 32.1435 22.9214 33.2565C21.7182 34.4397 21.4575 36.2645 22.3198 37.5479C22.9615 38.4904 24.0845 38.9617 25.4983 38.8514C26.902 38.7411 28.2155 38.1596 29.2081 37.2171L29.7696 36.6856L29.9401 37.187C30.1607 37.7886 30.6019 38.32 31.1533 38.6108C31.5043 38.8013 31.7248 38.8314 32.6774 38.8314C33.7101 38.8314 33.8204 38.8113 34.3719 38.5305C34.6927 38.3601 34.9334 38.1796 34.9133 38.1295C34.8933 38.0693 34.803 38.0493 34.7228 38.0593C34.6426 38.0793 34.2716 38.1094 33.9006 38.1094C33.3692 38.1295 33.1787 38.0894 32.9481 37.9189C32.4167 37.5279 32.4167 37.5379 32.4167 33.1562C32.4167 30.6496 32.3766 28.8648 32.3064 28.4938C31.9956 26.7993 30.8325 25.6964 28.9374 25.2953C28.0751 25.1048 26.5511 25.1148 25.6487 25.3154ZM29.7897 33.6375C29.7496 35.4122 29.7496 35.4223 29.4388 36.0339C28.8973 37.0767 28.1152 37.568 26.9922 37.578C25.398 37.578 24.285 36.3548 24.4254 34.7104C24.5658 32.8956 26.0497 32.0834 29.5892 31.8728L29.8298 31.8628L29.7897 33.6375Z" fill="#1A1A1A"/>
<path d="M245.824 25.2887C243.568 25.7901 242.214 27.7152 242.575 29.8809C242.776 31.0641 243.337 31.8662 244.3 32.3676C244.52 32.4779 245.423 32.8188 246.295 33.1196C248.28 33.8014 248.672 33.9618 249.083 34.3127C249.604 34.7439 249.744 35.1149 249.754 36.0173C249.754 36.7191 249.724 36.8796 249.474 37.3007C249.133 37.8822 248.461 38.3334 247.819 38.4337C247.178 38.534 245.944 38.3234 245.293 38.0026C244.26 37.5012 243.297 36.288 242.786 34.8341C242.465 33.9418 242.385 34.1222 242.385 35.6864V37.1302L243.037 37.5614C245.303 39.0453 248.14 39.286 249.935 38.153C252.091 36.7893 252.562 33.7813 250.857 32.2873C250.196 31.6958 249.604 31.415 247.538 30.7232C245.293 29.9612 244.771 29.7305 244.33 29.2793C243.327 28.2767 243.778 26.5822 245.222 25.9304C245.653 25.7299 245.904 25.6898 246.746 25.6898C247.589 25.6898 247.819 25.7299 248.15 25.9104C248.942 26.3315 249.674 27.3843 250.095 28.6677C250.165 28.8783 250.266 29.0487 250.316 29.0487C250.366 29.0487 250.406 28.4772 250.406 27.7453V26.4418L249.784 26.0407C248.641 25.2987 247.077 24.9979 245.824 25.2887Z" fill="#1A1A1A"/>
<path d="M43.9985 25.417C42.9858 25.7779 42.2538 26.3394 41.6221 27.2118L41.2913 27.673L41.2411 26.6402L41.191 25.5975L39.3661 25.5674C37.7819 25.5473 37.5312 25.5674 37.5312 25.6977C37.5312 25.7779 37.5914 25.8481 37.6716 25.8481C37.7518 25.8481 37.8922 25.9183 37.9724 26.0086C38.1128 26.1489 38.1329 26.8508 38.1329 32.2552C38.1329 38.0306 38.1228 38.3614 37.9524 38.5118C37.8521 38.6121 37.7117 38.6823 37.6516 38.6823C37.5814 38.6823 37.5312 38.7525 37.5312 38.8327C37.5312 38.963 37.812 38.9831 39.4865 38.9831C41.1609 38.9831 41.4417 38.963 41.4417 38.8327C41.4417 38.7525 41.3815 38.6823 41.3113 38.6823C41.2311 38.6823 41.1008 38.6021 41.0105 38.5018C40.8601 38.3314 40.8401 37.8902 40.8401 34.1602C40.8401 29.6783 40.8701 29.4377 41.3915 28.4751C42.2237 26.9511 43.5874 26.1489 45.3821 26.1489C46.9263 26.1489 47.4276 26.55 47.6582 27.9638C47.7986 28.8461 47.7986 38.1308 47.6482 38.3915C47.598 38.5018 47.4376 38.6322 47.2972 38.6823C47.1569 38.7424 47.0767 38.8227 47.1067 38.8828C47.187 39.0132 50.9369 39.0232 51.0171 38.8828C51.0472 38.8327 50.9369 38.7224 50.7665 38.6322C50.6061 38.5519 50.4456 38.3815 50.4155 38.2511C50.3855 38.1308 50.3554 35.8147 50.3353 33.1175C50.3153 28.6656 50.2952 28.1543 50.1348 27.7031C49.7438 26.6402 49.0218 25.9384 47.8988 25.5273C47.0566 25.2164 44.7404 25.1563 43.9985 25.417Z" fill="#1A1A1A"/>
<path d="M96.2934 25.4783C95.391 25.7891 94.7493 26.1801 94.0174 26.882C90.1069 30.622 91.5909 37.4602 96.6042 38.7436C97.5768 38.9942 99.3917 38.894 100.454 38.543C101.337 38.2422 101.738 38.0216 102.39 37.5003C102.831 37.1493 103.613 36.2369 103.613 36.0664C103.613 36.0163 103.412 35.9762 103.172 35.9762C102.781 35.9762 102.721 36.0063 102.61 36.287C102.54 36.4575 102.229 36.8586 101.918 37.1794C101.156 37.9615 100.485 38.2222 99.3516 38.162C98.7299 38.1219 98.4291 38.0517 97.998 37.8311C96.905 37.2696 96.1631 36.4575 95.5414 35.144C95.0802 34.1814 94.8997 33.4194 94.8195 32.1861L94.7593 31.1634H99.4318H104.114V30.5818C104.114 29.2583 103.543 27.9749 102.46 26.902C101.307 25.749 99.9431 25.2476 98.008 25.2476C97.1758 25.2476 96.8048 25.2978 96.2934 25.4783ZM99.3516 26.0097C100.424 26.511 101.166 27.9448 101.357 29.88L101.427 30.5618H98.3088H95.1805L95.2506 30.0304C95.3609 29.1681 95.752 27.7242 96.0327 27.1828C96.3135 26.6213 96.7446 26.2202 97.3462 25.9295C97.8375 25.6988 98.78 25.7289 99.3516 26.0097Z" fill="#1A1A1A"/>
<path d="M111.789 25.3441C110.616 25.5948 109.563 26.2164 108.66 27.189C107.918 27.9811 107.487 28.7231 107.096 29.826C106.795 30.6583 106.775 30.7886 106.775 32.1623C106.775 33.8167 106.886 34.318 107.537 35.5713C108.289 37.0252 109.553 38.1281 111.067 38.6495C111.789 38.9002 112.029 38.9303 113.042 38.9203C115.288 38.9102 116.973 38.1582 118.166 36.6442C118.386 36.3735 118.557 36.1128 118.557 36.0626C118.557 36.0125 118.406 35.9724 118.216 35.9724C117.915 35.9724 117.845 36.0326 117.514 36.574C116.822 37.697 115.88 38.2084 114.526 38.2084C113.834 38.2184 113.674 38.1783 113.012 37.8474C111.999 37.3461 111.207 36.4938 110.586 35.2505C110.104 34.2679 109.894 33.4457 109.783 32.0921L109.713 31.2599L114.356 31.2398L119.008 31.2097L119.038 30.8488C119.088 30.2973 118.797 29.1141 118.456 28.4123C117.514 26.4972 115.629 25.3742 113.243 25.284C112.661 25.2639 112.009 25.294 111.789 25.3441ZM114.406 26.0259C115.499 26.5874 116.211 27.9511 116.401 29.8762L116.471 30.558H113.353H110.225L110.285 30.0767C110.425 29.0841 110.746 27.8809 111.047 27.2692C111.368 26.6075 111.879 26.1362 112.571 25.8755C113.012 25.7051 113.924 25.7753 114.406 26.0259Z" fill="#1A1A1A"/>
<path d="M196.39 25.3869C195.407 25.7077 194.435 26.6402 193.903 27.7833L193.562 28.5052L193.552 27.0212V25.5473H192.008C190.464 25.5473 190.123 25.6275 190.564 25.8581C190.695 25.9283 190.825 26.0286 190.865 26.0888C190.905 26.1489 190.945 28.9363 190.945 32.2852C190.945 37.6796 190.925 38.3815 190.785 38.5219C190.705 38.6121 190.564 38.6823 190.484 38.6823C190.404 38.6823 190.344 38.7224 190.344 38.7825C190.344 38.8427 191.066 38.8828 192.299 38.8828C193.532 38.8828 194.254 38.8427 194.254 38.7825C194.254 38.7224 194.194 38.6823 194.124 38.6823C194.044 38.6823 193.903 38.592 193.813 38.4918C193.653 38.3113 193.643 37.9604 193.683 33.9998C193.723 29.2873 193.733 29.187 194.374 27.9136C194.796 27.0613 195.287 26.4898 195.889 26.1489C196.54 25.7779 197.042 25.7579 197.433 26.0888C197.703 26.3294 197.713 26.3695 197.774 27.5727C197.804 28.2445 197.854 28.8762 197.904 28.9664C198.114 29.4377 199.418 29.578 199.939 29.197C200.19 29.0065 200.22 28.9163 200.25 28.3147C200.28 27.5727 200.08 26.7104 199.749 26.169C199.638 25.9885 199.338 25.7278 199.087 25.5774C198.696 25.3468 198.495 25.2966 197.713 25.2766C197.152 25.2565 196.651 25.2966 196.39 25.3869Z" fill="#1A1A1A"/>
<path d="M209.22 25.7988C208.488 25.9993 207.736 26.3903 207.145 26.8516L206.644 27.2526L206.613 26.5508L206.583 25.8489H204.979C203.936 25.8489 203.395 25.879 203.435 25.9492C203.465 25.9993 203.565 26.0494 203.636 26.0494C203.716 26.0494 203.826 26.1397 203.886 26.2399C203.956 26.3703 203.986 29.6089 203.986 36.026C203.986 43.9671 203.966 45.6616 203.846 45.9424C203.696 46.3134 203.254 46.6242 202.613 46.8147C202.372 46.8849 202.182 46.9751 202.182 47.0253C202.182 47.0654 203.174 47.1055 204.388 47.1055H206.593V42.2726V37.4297L206.894 37.8007C207.516 38.5527 208.398 38.8836 209.802 38.8836C211.486 38.8836 212.74 38.3622 213.963 37.1289C214.875 36.2165 215.377 35.3442 215.728 34.0106C216.029 32.8977 216.029 31.0227 215.738 29.9298C215.256 28.1751 214.184 26.7413 212.83 26.0695C212.098 25.7085 212.028 25.6985 210.915 25.6784C210.133 25.6584 209.581 25.6985 209.22 25.7988ZM210.845 26.7312C211.496 27.022 212.078 27.6637 212.519 28.5862C213.081 29.7794 213.221 30.411 213.221 31.8248C213.221 34.7526 212.178 36.9885 210.434 37.8408C209.281 38.4123 207.837 38.1416 207.185 37.2492C206.623 36.4772 206.593 36.1964 206.593 32.1757V28.506L206.894 27.9745C207.245 27.383 207.927 26.8215 208.599 26.6009C209.18 26.4104 210.243 26.4705 210.845 26.7312Z" fill="#1A1A1A"/>
</g>
<defs>
<clipPath id="clip0_8813_489">
<rect width="252.44" height="46.5021" fill="white" transform="translate(0.734375 0.650391)"/>
</clipPath>
</defs>
</svg>
