<svg width="123" height="22" viewBox="0 0 123 22" fill="none" xmlns="http://www.w3.org/2000/svg">
<path fill-rule="evenodd" clip-rule="evenodd" d="M73.0018 2.86468H74.9892C76.195 2.86468 76.6174 3.13649 76.6174 4.19112V17.183C76.6174 18.2083 76.195 18.6 74.9892 18.6H73.0018V20.7001H93.3174V12.0748H91.3965C91.3965 16.3272 89.7122 18.5635 86.8769 18.5635H81.1761V11.6524H82.2953C84.1347 11.6524 85.1854 12.4678 85.1854 13.9741V15.1813H87.3892V5.58925H85.1854V6.64518C85.1854 8.12544 84.0754 9.02754 82.2953 9.02754H81.1761V2.86468H86.4851C90.3771 2.86468 91.1853 5.1056 91.3965 8.45395H93.3174V0.582047H73.0018V2.86468ZM64.0648 18.5635H59.2506V4.28237C59.2506 3.22709 59.673 2.86534 60.8795 2.86534H62.6889V0.632889H51.4562V2.86534H53.0252C54.2316 2.86534 54.654 3.22709 54.654 4.28237V17.183C54.654 18.2083 54.2316 18.6007 53.0252 18.6007H51.4562V20.7516H70.4943V11.9144H68.3238C68.2625 15.382 68.2866 18.5635 64.0648 18.5635ZM37.209 0.0195312C30.2711 0.0195312 25.9522 5.36959 25.9281 10.4029C25.8968 16.9177 30.2112 21.0195 36.9978 21.0195C44.2062 21.0195 48.3993 16.9783 48.3993 10.0704C48.3993 4.95177 43.8744 0.0195312 37.209 0.0195312ZM37.0578 18.6463C33.4383 18.6463 31.357 15.4094 31.357 10.2516C31.357 5.21445 33.5289 2.61374 37.239 2.61374C40.7979 2.61374 42.8791 5.27507 42.8791 10.4628C42.8797 15.53 40.7685 18.6463 37.0578 18.6463ZM120.006 2.86468H122.12V0.604861H111.907V2.86468H113.243C113.744 2.94159 114.078 3.45587 113.578 3.95711L110.739 7.21355L108.484 4.45771C107.982 3.87368 108.067 2.87055 108.985 2.87055L110.016 2.86403V0.604204H98.3793V2.86403C101.302 2.94747 102.032 3.28835 103.087 4.64542L107.816 10.3859L101.385 17.1491C100.24 18.4462 100.13 18.5622 98.38 18.5622V20.7216H108.567V18.5622H106.129C105.407 18.5622 105.255 18.0375 105.255 17.6464C105.255 17.254 105.768 16.8017 105.979 16.5299L109.569 12.4671L113.16 16.7417C113.341 16.9829 113.641 17.2547 113.641 17.5565C113.641 17.9488 113.31 18.5629 112.617 18.5629H110.598V20.7223H122.12V18.5629C120.3 18.5629 120.137 18.4768 118.503 16.4823L112.492 9.38473L116.583 4.95894C118.09 3.36071 118.68 2.86468 120.006 2.86468ZM21.1373 14.9427V15.9758C21.1373 17.2123 20.4151 17.8452 19.8122 17.8452C18.8469 17.8452 18.7869 16.6693 18.7263 15.9758V15.1409C18.7263 12.385 17.4742 11.2991 15.8877 10.4641C18.8436 9.77125 20.8049 8.0055 20.8049 5.56187C20.8049 2.39473 18.6331 0.584654 14.7731 0.584654H0.173828V2.86534H2.15077C3.35727 2.86534 3.77964 3.14431 3.77964 4.19959V17.1465C3.77964 18.1718 3.35727 18.5635 2.15077 18.5635H0.173828V20.7027H11.5453V18.5635H9.97639C8.76989 18.5635 8.34752 18.1718 8.34752 17.1465V11.3825H10.3759C12.5478 11.3825 14.1388 12.5968 14.2594 14.8893L14.4406 17.5363C14.5612 19.9493 16.1901 21.2457 19.0554 21.2457C22.102 21.2457 22.8177 19.768 22.8177 16.6309V14.942L21.1373 14.9427ZM11.8797 8.7642H8.35013V2.84773H11.4866C14.5032 2.84773 15.5885 3.84827 15.5885 5.80826C15.5891 7.82887 14.4133 8.7642 11.8797 8.7642Z" fill="#1A1A1A"/>
</svg>
