<svg width="180" height="22" viewBox="0 0 180 22" fill="none" xmlns="http://www.w3.org/2000/svg">
<path fill-rule="evenodd" clip-rule="evenodd" d="M0.121094 21.1063V0.293438H7.28844C8.39087 0.156016 9.35588 0.431881 10.3209 0.982588C11.1475 1.53431 11.9751 2.22346 12.5258 3.05003C13.0775 4.01606 13.3523 4.98006 13.3523 6.08351C13.3523 7.0475 13.0765 8.14891 12.5258 8.9765C12.1125 9.80307 11.5608 10.4932 10.7342 11.0439C10.3209 11.3198 9.90761 11.5947 9.35588 11.7341C8.80416 11.8715 8.11501 12.009 7.5643 12.009H2.60182V21.1073L0.121094 21.1063ZM2.60182 9.80307H7.42586C8.11501 9.80307 8.66673 9.52822 9.21744 9.25236C9.77872 8.84967 10.2484 8.33278 10.5957 7.73563C10.8778 7.18117 11.0197 6.56604 11.009 5.94405C10.8706 5.25592 10.7332 4.70317 10.3199 4.15247C10.0548 3.61301 9.61845 3.17663 9.079 2.91159C8.66572 2.63572 8.11399 2.49831 7.56328 2.49831C7.42484 2.36088 7.28742 2.36088 7.15 2.36088H2.73925L2.60182 9.80307ZM10.3209 21.1063L18.5907 0.0185957H20.7966L29.4796 21.1063H26.5836L24.5161 15.7306H15.0065L12.939 21.1063H10.3209ZM15.9715 13.5247H23.5521L19.6921 4.01504L15.9715 13.5247ZM31.2702 21.1063V2.63573L25.0679 2.49831V0.0175781H40.3675L40.2291 2.36088L33.8893 2.49831V21.1063H31.2702ZM42.0217 21.1063V0.0175781H53.8746L52.4964 2.36088H44.6399V9.11494H52.082V11.4572H44.6399V18.9015H52.6338L54.0121 21.1063H42.0217ZM55.6662 21.1063V0.0175781H58.2854V9.52924L66.6926 0.0175781H69.9999L63.5227 7.32234L70.6901 21.1063H67.5192L61.7301 9.52924L58.2854 13.3883V21.1063H55.6662ZM78.5455 21.2427L78.4081 0.292421H85.7129C86.8153 0.292421 87.7803 0.568285 88.7453 0.981571C89.5719 1.5333 90.4005 2.22244 90.8138 3.18746C91.3645 4.01403 91.6394 5.11646 91.7778 6.08249C91.7778 7.18391 91.5019 8.14789 90.9512 9.11494C90.5379 9.80307 89.9862 10.4932 89.1586 11.0439C88.7453 11.3198 88.3321 11.5947 87.7803 11.7341C87.2204 12.0008 86.6089 12.1419 85.9888 12.1474H81.0263V21.2437L78.5455 21.2427ZM81.0263 9.80307H85.8503C86.402 9.80307 87.0912 9.66565 87.6419 9.25236C88.1936 8.9765 88.6069 8.42579 88.8828 7.87406C89.1586 7.32132 89.4345 6.6332 89.296 5.94405C89.296 5.39334 89.1576 4.70317 88.7443 4.15247C88.4796 3.61313 88.0436 3.17675 87.5045 2.91159C87.0912 2.63572 86.5395 2.49831 85.9888 2.49831H81.0263V9.80307ZM93.4319 21.2427V0.0175781H96.0501V8.83908H105.56L105.422 0.0175781H108.04V21.2427H105.422L105.56 11.3198H96.0501V21.2427H93.4319ZM111.624 21.2427V0.156013H114.244V21.2427H111.624ZM117.276 21.2427L117.139 0.0175781H119.894V18.6246H129.129V21.2427H117.276ZM130.921 21.2427V0.0175781H133.539V21.2427H130.921ZM136.434 21.2427V0.0175781H143.601C144.703 0.0175781 145.669 0.293437 146.634 0.844145C147.524 1.3464 148.28 2.05551 148.839 2.91159C149.389 3.87558 149.665 4.84162 149.665 5.94405C149.665 6.90804 149.389 8.01149 148.975 8.83908C148.424 9.66565 147.874 10.3558 147.183 10.9065C146.633 11.1814 146.219 11.3198 145.669 11.5947C145.116 11.7341 144.565 11.8705 143.875 11.8705H139.052V21.2427H136.434ZM139.052 9.66565H143.739C144.429 9.66565 144.98 9.38979 145.53 9.11494C146.083 8.70166 146.634 8.28837 146.91 7.59821C147.176 7.03827 147.317 6.4268 147.323 5.80662C147.323 5.11646 147.047 4.42833 146.77 3.87661C146.357 3.46332 145.944 3.05003 145.529 2.77519C144.979 2.49932 144.428 2.36089 143.875 2.22346H139.052V9.66565ZM151.733 21.2427V0.0175781H159.037C160.001 0.0175781 161.105 0.293437 161.932 0.844145C162.823 1.3464 163.579 2.05551 164.137 2.91159C164.688 3.87558 164.964 4.84162 164.964 5.94405C164.964 6.90804 164.826 8.01149 164.274 8.83908C163.86 9.66565 163.172 10.3558 162.482 10.9065C162.069 11.1814 161.518 11.3198 161.104 11.5947C160.553 11.7341 159.863 11.8705 159.174 11.8705H154.351V21.2427H151.733ZM154.352 9.66565H159.038C159.729 9.66565 160.417 9.38979 160.968 9.11494C161.519 8.70166 161.932 8.28837 162.209 7.59821C162.476 7.03827 162.617 6.4268 162.623 5.80662C162.623 5.11646 162.483 4.42833 162.07 3.87661C161.759 3.40774 161.331 3.02809 160.829 2.77519C160.348 2.53081 159.84 2.34556 159.314 2.22346H154.352V9.66565ZM167.032 21.2427V0.0175781H178.746L177.644 2.36088H169.651V8.83908H176.267V11.1814H169.788V18.6246H177.782L179.023 21.2427H167.032Z" fill="#1A1A1A"/>
</svg>
